<svg version="1.1" viewBox="0.0 0.0 1152.0 713.0" fill="none" stroke="none" stroke-linecap="square" stroke-miterlimit="10" width="1152" height="713" xmlns:xlink="http://www.w3.org/1999/xlink" xmlns="http://www.w3.org/2000/svg"><path fill="#ffffff" d="M0 0L1152.0 0L1152.0 713.0L0 713.0L0 0Z" fill-rule="nonzero"/><path stroke="#333333" stroke-width="1.0" stroke-linecap="butt" d="M86.5 625.5L1116.5 625.5" fill-rule="nonzero"/><path stroke="#cccccc" stroke-width="1.0" stroke-linecap="butt" d="M86.5 501.5L1116.5 501.5" fill-rule="nonzero"/><path stroke="#cccccc" stroke-width="1.0" stroke-linecap="butt" d="M86.5 376.5L1116.5 376.5" fill-rule="nonzero"/><path stroke="#cccccc" stroke-width="1.0" stroke-linecap="butt" d="M86.5 252.5L1116.5 252.5" fill-rule="nonzero"/><path stroke="#cccccc" stroke-width="1.0" stroke-linecap="butt" d="M86.5 128.5L1116.5 128.5" fill-rule="nonzero"/><path stroke="#e6e6e6" stroke-width="1.0" stroke-linecap="butt" d="M86.5 583.5L1116.5 583.5" fill-rule="nonzero"/><path stroke="#e6e6e6" stroke-width="1.0" stroke-linecap="butt" d="M86.5 542.5L1116.5 542.5" fill-rule="nonzero"/><path stroke="#e6e6e6" stroke-width="1.0" stroke-linecap="butt" d="M86.5 459.5L1116.5 459.5" fill-rule="nonzero"/><path stroke="#e6e6e6" stroke-width="1.0" stroke-linecap="butt" d="M86.5 418.5L1116.5 418.5" fill-rule="nonzero"/><path stroke="#e6e6e6" stroke-width="1.0" stroke-linecap="butt" d="M86.5 335.5L1116.5 335.5" fill-rule="nonzero"/><path stroke="#e6e6e6" stroke-width="1.0" stroke-linecap="butt" d="M86.5 293.5L1116.5 293.5" fill-rule="nonzero"/><path stroke="#e6e6e6" stroke-width="1.0" stroke-linecap="butt" d="M86.5 211.5L1116.5 211.5" fill-rule="nonzero"/><path stroke="#e6e6e6" stroke-width="1.0" stroke-linecap="butt" d="M86.5 169.5L1116.5 169.5" fill-rule="nonzero"/><clipPath id="id_0"><path d="M86.65 128.18333L1116.35 128.18333L1116.35 625.35L86.65 625.35L86.65 128.18333Z" clip-rule="nonzero"/></clipPath><path stroke="#4285f4" stroke-width="2.0" stroke-linecap="butt" clip-path="url(#id_0)" d="M129.55417 510.14655L215.3625 493.9588L301.17084 475.63324L386.97916 454.91132L472.7875 431.49976L558.5958 404.19534L644.4042 374.24603L730.2125 339.3151L816.0208 299.7655L901.82916 256.58658L987.6375 206.22359L1073.4458 178.64078" fill-rule="nonzero"/><path stroke="#ea4335" stroke-width="2.0" stroke-linecap="butt" clip-path="url(#id_0)" d="M129.55417 514.6956L215.3625 497.6627L301.17084 478.05444L386.97916 455.97525L472.7875 430.79874L558.5958 402.1172L644.4042 369.2346L730.2125 332.06143L816.0208 290.379L901.82916 242.76036L987.6375 188.37033L1073.4458 159.05739" fill-rule="nonzero"/><path stroke="#fbbc04" stroke-width="2.0" stroke-linecap="butt" clip-path="url(#id_0)" d="M129.55417 531.117L215.3625 517.27094L301.17084 501.49088L386.97916 483.52823L472.7875 463.48248L558.5958 440.2797L644.4042 414.40717L730.2125 385.06934L816.0208 351.81885L901.82916 314.14355L987.6375 272.29205L1073.4458 245.03738" fill-rule="nonzero"/><path fill="#000000" fill-opacity="0.0" clip-path="url(#id_0)" d="M132.55417 510.14655C132.55417 511.8034 131.21101 513.14655 129.55417 513.14655C127.897316 513.14655 126.55417 511.8034 126.55417 510.14655C126.55417 508.4897 127.897316 507.14655 129.55417 507.14655C131.21101 507.14655 132.55417 508.4897 132.55417 510.14655Z" fill-rule="nonzero"/><path fill="#000000" fill-opacity="0.0" clip-path="url(#id_0)" d="M218.3625 493.9588C218.3625 495.61566 217.01935 496.9588 215.3625 496.9588C213.70564 496.9588 212.3625 495.61566 212.3625 493.9588C212.3625 492.30194 213.70564 490.9588 215.3625 490.9588C217.01935 490.9588 218.3625 492.30194 218.3625 493.9588Z" fill-rule="nonzero"/><path fill="#000000" fill-opacity="0.0" clip-path="url(#id_0)" d="M304.17084 475.63324C304.17084 477.29007 302.8277 478.63324 301.17084 478.63324C299.51398 478.63324 298.17084 477.29007 298.17084 475.63324C298.17084 473.97638 299.51398 472.63324 301.17084 472.63324C302.8277 472.63324 304.17084 473.97638 304.17084 475.63324Z" fill-rule="nonzero"/><path fill="#000000" fill-opacity="0.0" clip-path="url(#id_0)" d="M389.97916 454.91132C389.97916 456.56818 388.63602 457.91132 386.97916 457.91132C385.32233 457.91132 383.97916 456.56818 383.97916 454.91132C383.97916 453.25446 385.32233 451.91132 386.97916 451.91132C388.63602 451.91132 389.97916 453.25446 389.97916 454.91132Z" fill-rule="nonzero"/><path fill="#000000" fill-opacity="0.0" clip-path="url(#id_0)" d="M475.7875 431.49976C475.7875 433.1566 474.44437 434.49976 472.7875 434.49976C471.13065 434.49976 469.7875 433.1566 469.7875 431.49976C469.7875 429.8429 471.13065 428.49976 472.7875 428.49976C474.44437 428.49976 475.7875 429.8429 475.7875 431.49976Z" fill-rule="nonzero"/><path fill="#000000" fill-opacity="0.0" clip-path="url(#id_0)" d="M561.5958 404.19534C561.5958 405.8522 560.2527 407.19534 558.5958 407.19534C556.93896 407.19534 555.5958 405.8522 555.5958 404.19534C555.5958 402.53848 556.93896 401.19534 558.5958 401.19534C560.2527 401.19534 561.5958 402.53848 561.5958 404.19534Z" fill-rule="nonzero"/><path fill="#000000" fill-opacity="0.0" clip-path="url(#id_0)" d="M647.4042 374.24603C647.4042 375.9029 646.06104 377.24603 644.4042 377.24603C642.7473 377.24603 641.4042 375.9029 641.4042 374.24603C641.4042 372.58917 642.7473 371.24603 644.4042 371.24603C646.06104 371.24603 647.4042 372.58917 647.4042 374.24603Z" fill-rule="nonzero"/><path fill="#000000" fill-opacity="0.0" clip-path="url(#id_0)" d="M733.2125 339.3151C733.2125 340.97195 731.8694 342.3151 730.2125 342.3151C728.55566 342.3151 727.2125 340.97195 727.2125 339.3151C727.2125 337.65823 728.55566 336.3151 730.2125 336.3151C731.8694 336.3151 733.2125 337.65823 733.2125 339.3151Z" fill-rule="nonzero"/><path fill="#000000" fill-opacity="0.0" clip-path="url(#id_0)" d="M819.0208 299.7655C819.0208 301.42233 817.6777 302.7655 816.0208 302.7655C814.36395 302.7655 813.0208 301.42233 813.0208 299.7655C813.0208 298.10864 814.36395 296.7655 816.0208 296.7655C817.6777 296.7655 819.0208 298.10864 819.0208 299.7655Z" fill-rule="nonzero"/><path fill="#000000" fill-opacity="0.0" clip-path="url(#id_0)" d="M904.82916 256.58658C904.82916 258.2434 903.486 259.58658 901.82916 259.58658C900.1723 259.58658 898.82916 258.2434 898.82916 256.58658C898.82916 254.92972 900.1723 253.58656 901.82916 253.58656C903.486 253.58656 904.82916 254.92972 904.82916 256.58658Z" fill-rule="nonzero"/><path fill="#000000" fill-opacity="0.0" clip-path="url(#id_0)" d="M990.6375 206.22359C990.6375 207.88043 989.2944 209.22359 987.6375 209.22359C985.98065 209.22359 984.6375 207.88043 984.6375 206.22359C984.6375 204.56673 985.98065 203.22359 987.6375 203.22359C989.2944 203.22359 990.6375 204.56673 990.6375 206.22359Z" fill-rule="nonzero"/><path fill="#000000" fill-opacity="0.0" clip-path="url(#id_0)" d="M1076.4458 178.64078C1076.4458 180.29764 1075.1027 181.64078 1073.4458 181.64078C1071.789 181.64078 1070.4458 180.29764 1070.4458 178.64078C1070.4458 176.98392 1071.789 175.64078 1073.4458 175.64078C1075.1027 175.64078 1076.4458 176.98392 1076.4458 178.64078Z" fill-rule="nonzero"/><path fill="#000000" fill-opacity="0.0" clip-path="url(#id_0)" d="M132.55417 514.6956C132.55417 516.3525 131.21101 517.6956 129.55417 517.6956C127.897316 517.6956 126.55417 516.3525 126.55417 514.6956C126.55417 513.03876 127.897316 511.69562 129.55417 511.69562C131.21101 511.69562 132.55417 513.03876 132.55417 514.6956Z" fill-rule="nonzero"/><path fill="#000000" fill-opacity="0.0" clip-path="url(#id_0)" d="M218.3625 497.6627C218.3625 499.31955 217.01935 500.6627 215.3625 500.6627C213.70564 500.6627 212.3625 499.31955 212.3625 497.6627C212.3625 496.00583 213.70564 494.6627 215.3625 494.6627C217.01935 494.6627 218.3625 496.00583 218.3625 497.6627Z" fill-rule="nonzero"/><path fill="#000000" fill-opacity="0.0" clip-path="url(#id_0)" d="M304.17084 478.05444C304.17084 479.71127 302.8277 481.05444 301.17084 481.05444C299.51398 481.05444 298.17084 479.71127 298.17084 478.05444C298.17084 476.39758 299.51398 475.05444 301.17084 475.05444C302.8277 475.05444 304.17084 476.39758 304.17084 478.05444Z" fill-rule="nonzero"/><path fill="#000000" fill-opacity="0.0" clip-path="url(#id_0)" d="M389.97916 455.97525C389.97916 457.6321 388.63602 458.97525 386.97916 458.97525C385.32233 458.97525 383.97916 457.6321 383.97916 455.97525C383.97916 454.31842 385.32233 452.97525 386.97916 452.97525C388.63602 452.97525 389.97916 454.31842 389.97916 455.97525Z" fill-rule="nonzero"/><path fill="#000000" fill-opacity="0.0" clip-path="url(#id_0)" d="M475.7875 430.79874C475.7875 432.4556 474.44437 433.79874 472.7875 433.79874C471.13065 433.79874 469.7875 432.4556 469.7875 430.79874C469.7875 429.14188 471.13065 427.79874 472.7875 427.79874C474.44437 427.79874 475.7875 429.14188 475.7875 430.79874Z" fill-rule="nonzero"/><path fill="#000000" fill-opacity="0.0" clip-path="url(#id_0)" d="M561.5958 402.1172C561.5958 403.77405 560.2527 405.1172 558.5958 405.1172C556.93896 405.1172 555.5958 403.77405 555.5958 402.1172C555.5958 400.46033 556.93896 399.1172 558.5958 399.1172C560.2527 399.1172 561.5958 400.46033 561.5958 402.1172Z" fill-rule="nonzero"/><path fill="#000000" fill-opacity="0.0" clip-path="url(#id_0)" d="M647.4042 369.2346C647.4042 370.89145 646.06104 372.2346 644.4042 372.2346C642.7473 372.2346 641.4042 370.89145 641.4042 369.2346C641.4042 367.57773 642.7473 366.2346 644.4042 366.2346C646.06104 366.2346 647.4042 367.57773 647.4042 369.2346Z" fill-rule="nonzero"/><path fill="#000000" fill-opacity="0.0" clip-path="url(#id_0)" d="M733.2125 332.06143C733.2125 333.7183 731.8694 335.06143 730.2125 335.06143C728.55566 335.06143 727.2125 333.7183 727.2125 332.06143C727.2125 330.40457 728.55566 329.06143 730.2125 329.06143C731.8694 329.06143 733.2125 330.40457 733.2125 332.06143Z" fill-rule="nonzero"/><path fill="#000000" fill-opacity="0.0" clip-path="url(#id_0)" d="M819.0208 290.379C819.0208 292.03583 817.6777 293.379 816.0208 293.379C814.36395 293.379 813.0208 292.03583 813.0208 290.379C813.0208 288.72214 814.36395 287.379 816.0208 287.379C817.6777 287.379 819.0208 288.72214 819.0208 290.379Z" fill-rule="nonzero"/><path fill="#000000" fill-opacity="0.0" clip-path="url(#id_0)" d="M904.82916 242.76036C904.82916 244.41722 903.486 245.76036 901.82916 245.76036C900.1723 245.76036 898.82916 244.41722 898.82916 242.76036C898.82916 241.10352 900.1723 239.76036 901.82916 239.76036C903.486 239.76036 904.82916 241.10352 904.82916 242.76036Z" fill-rule="nonzero"/><path fill="#000000" fill-opacity="0.0" clip-path="url(#id_0)" d="M990.6375 188.37033C990.6375 190.02719 989.2944 191.37033 987.6375 191.37033C985.98065 191.37033 984.6375 190.02719 984.6375 188.37033C984.6375 186.71347 985.98065 185.37033 987.6375 185.37033C989.2944 185.37033 990.6375 186.71347 990.6375 188.37033Z" fill-rule="nonzero"/><path fill="#000000" fill-opacity="0.0" clip-path="url(#id_0)" d="M1076.4458 159.05739C1076.4458 160.71423 1075.1027 162.05739 1073.4458 162.05739C1071.789 162.05739 1070.4458 160.71423 1070.4458 159.05739C1070.4458 157.40053 1071.789 156.05739 1073.4458 156.05739C1075.1027 156.05739 1076.4458 157.40053 1076.4458 159.05739Z" fill-rule="nonzero"/><path fill="#000000" fill-opacity="0.0" clip-path="url(#id_0)" d="M132.55417 531.117C132.55417 532.77386 131.21101 534.117 129.55417 534.117C127.897316 534.117 126.55417 532.77386 126.55417 531.117C126.55417 529.4602 127.897316 528.117 129.55417 528.117C131.21101 528.117 132.55417 529.4602 132.55417 531.117Z" fill-rule="nonzero"/><path fill="#000000" fill-opacity="0.0" clip-path="url(#id_0)" d="M218.3625 517.27094C218.3625 518.9278 217.01935 520.27094 215.3625 520.27094C213.70564 520.27094 212.3625 518.9278 212.3625 517.27094C212.3625 515.6141 213.70564 514.27094 215.3625 514.27094C217.01935 514.27094 218.3625 515.6141 218.3625 517.27094Z" fill-rule="nonzero"/><path fill="#000000" fill-opacity="0.0" clip-path="url(#id_0)" d="M304.17084 501.49088C304.17084 503.14774 302.8277 504.49088 301.17084 504.49088C299.51398 504.49088 298.17084 503.14774 298.17084 501.49088C298.17084 499.834 299.51398 498.49088 301.17084 498.49088C302.8277 498.49088 304.17084 499.834 304.17084 501.49088Z" fill-rule="nonzero"/><path fill="#000000" fill-opacity="0.0" clip-path="url(#id_0)" d="M389.97916 483.52823C389.97916 485.1851 388.63602 486.52823 386.97916 486.52823C385.32233 486.52823 383.97916 485.1851 383.97916 483.52823C383.97916 481.87137 385.32233 480.52823 386.97916 480.52823C388.63602 480.52823 389.97916 481.87137 389.97916 483.52823Z" fill-rule="nonzero"/><path fill="#000000" fill-opacity="0.0" clip-path="url(#id_0)" d="M475.7875 463.48248C475.7875 465.13934 474.44437 466.48248 472.7875 466.48248C471.13065 466.48248 469.7875 465.13934 469.7875 463.48248C469.7875 461.82562 471.13065 460.48248 472.7875 460.48248C474.44437 460.48248 475.7875 461.82562 475.7875 463.48248Z" fill-rule="nonzero"/><path fill="#000000" fill-opacity="0.0" clip-path="url(#id_0)" d="M561.5958 440.2797C561.5958 441.93655 560.2527 443.2797 558.5958 443.2797C556.93896 443.2797 555.5958 441.93655 555.5958 440.2797C555.5958 438.62286 556.93896 437.2797 558.5958 437.2797C560.2527 437.2797 561.5958 438.62286 561.5958 440.2797Z" fill-rule="nonzero"/><path fill="#000000" fill-opacity="0.0" clip-path="url(#id_0)" d="M647.4042 414.40717C647.4042 416.064 646.06104 417.40717 644.4042 417.40717C642.7473 417.40717 641.4042 416.064 641.4042 414.40717C641.4042 412.7503 642.7473 411.40717 644.4042 411.40717C646.06104 411.40717 647.4042 412.7503 647.4042 414.40717Z" fill-rule="nonzero"/><path fill="#000000" fill-opacity="0.0" clip-path="url(#id_0)" d="M733.2125 385.06934C733.2125 386.7262 731.8694 388.06934 730.2125 388.06934C728.55566 388.06934 727.2125 386.7262 727.2125 385.06934C727.2125 383.4125 728.55566 382.06934 730.2125 382.06934C731.8694 382.06934 733.2125 383.4125 733.2125 385.06934Z" fill-rule="nonzero"/><path fill="#000000" fill-opacity="0.0" clip-path="url(#id_0)" d="M819.0208 351.81885C819.0208 353.4757 817.6777 354.81885 816.0208 354.81885C814.36395 354.81885 813.0208 353.4757 813.0208 351.81885C813.0208 350.162 814.36395 348.81885 816.0208 348.81885C817.6777 348.81885 819.0208 350.162 819.0208 351.81885Z" fill-rule="nonzero"/><path fill="#000000" fill-opacity="0.0" clip-path="url(#id_0)" d="M904.82916 314.14355C904.82916 315.8004 903.486 317.14355 901.82916 317.14355C900.1723 317.14355 898.82916 315.8004 898.82916 314.14355C898.82916 312.4867 900.1723 311.14355 901.82916 311.14355C903.486 311.14355 904.82916 312.4867 904.82916 314.14355Z" fill-rule="nonzero"/><path fill="#000000" fill-opacity="0.0" clip-path="url(#id_0)" d="M990.6375 272.29205C990.6375 273.9489 989.2944 275.29205 987.6375 275.29205C985.98065 275.29205 984.6375 273.9489 984.6375 272.29205C984.6375 270.63522 985.98065 269.29205 987.6375 269.29205C989.2944 269.29205 990.6375 270.63522 990.6375 272.29205Z" fill-rule="nonzero"/><path fill="#000000" fill-opacity="0.0" clip-path="url(#id_0)" d="M1076.4458 245.03738C1076.4458 246.69424 1075.1027 248.03738 1073.4458 248.03738C1071.789 248.03738 1070.4458 246.69424 1070.4458 245.03738C1070.4458 243.38054 1071.789 242.03738 1073.4458 242.03738C1075.1027 242.03738 1076.4458 243.38054 1076.4458 245.03738Z" fill-rule="nonzero"/><path fill="#000000" d="M576.9531 670.975L576.9531 669.975L580.5781 669.95935L580.5781 673.14685Q579.75 673.8187 578.8594 674.1625Q577.96875 674.4906 577.03125 674.4906Q575.7656 674.4906 574.71875 673.95935Q573.6875 673.4125 573.15625 672.39685Q572.6406 671.3656 572.6406 670.1Q572.6406 668.83435 573.15625 667.7562Q573.6875 666.6625 574.6719 666.14685Q575.65625 665.6156 576.9375 665.6156Q577.875 665.6156 578.625 665.9125Q579.375 666.20935 579.7969 666.7562Q580.2344 667.2875 580.4531 668.1625L579.4375 668.4437Q579.2344 667.7875 578.9375 667.4125Q578.65625 667.0375 578.125 666.8187Q577.59375 666.58435 576.9531 666.58435Q576.1719 666.58435 575.59375 666.8187Q575.03125 667.0531 574.6719 667.4437Q574.3281 667.83435 574.1406 668.3031Q573.8125 669.1 573.8125 670.02185Q573.8125 671.1781 574.2031 671.95935Q574.6094 672.725 575.3594 673.1Q576.1094 673.475 576.96875 673.475Q577.7031 673.475 578.40625 673.1937Q579.1094 672.89685 579.46875 672.58435L579.46875 670.975L576.9531 670.975ZM586.0469 672.35L587.1406 672.475Q586.8906 673.4281 586.1875 673.95935Q585.4844 674.4906 584.40625 674.4906Q583.0469 674.4906 582.2344 673.64685Q581.4375 672.8031 581.4375 671.2875Q581.4375 669.725 582.25 668.8656Q583.0625 667.9906 584.34375 667.9906Q585.59375 667.9906 586.375 668.83435Q587.1719 669.6781 587.1719 671.225Q587.1719 671.3187 587.1719 671.5062L582.53125 671.5062Q582.59375 672.5375 583.1094 673.08435Q583.625 673.6156 584.40625 673.6156Q584.9844 673.6156 585.3906 673.3187Q585.8125 673.0062 586.0469 672.35ZM582.59375 670.64685L586.0625 670.64685Q586.0 669.85 585.6719 669.45935Q585.15625 668.85 584.3594 668.85Q583.625 668.85 583.125 669.33435Q582.6406 669.8187 582.59375 670.64685ZM588.7969 674.35L588.7969 668.1312L589.7344 668.1312L589.7344 669.0062Q590.03125 668.5375 590.5156 668.27185Q591.0 667.9906 591.625 667.9906Q592.3125 667.9906 592.75 668.27185Q593.2031 668.5531 593.375 669.0687Q594.125 667.9906 595.2969 667.9906Q596.2344 667.9906 596.71875 668.5062Q597.21875 669.0062 597.21875 670.08435L597.21875 674.35L596.1719 674.35L596.1719 670.4281Q596.1719 669.8031 596.0625 669.52185Q595.96875 669.2406 595.7031 669.0687Q595.4375 668.89685 595.0625 668.89685Q594.40625 668.89685 593.96875 669.33435Q593.5469 669.77185 593.5469 670.7406L593.5469 674.35L592.4844 674.35L592.4844 670.3031Q592.4844 669.6 592.21875 669.2562Q591.96875 668.89685 591.3906 668.89685Q590.9375 668.89685 590.5625 669.1312Q590.1875 669.3656 590.0156 669.8187Q589.84375 670.27185 589.84375 671.1156L589.84375 674.35L588.7969 674.35ZM602.875 674.35L602.875 665.7562L604.0156 665.7562L604.0156 673.33435L608.25 673.33435L608.25 674.35L602.875 674.35ZM614.0469 672.35L615.1406 672.475Q614.8906 673.4281 614.1875 673.95935Q613.4844 674.4906 612.40625 674.4906Q611.0469 674.4906 610.2344 673.64685Q609.4375 672.8031 609.4375 671.2875Q609.4375 669.725 610.25 668.8656Q611.0625 667.9906 612.34375 667.9906Q613.59375 667.9906 614.375 668.83435Q615.1719 669.6781 615.1719 671.225Q615.1719 671.3187 615.1719 671.5062L610.53125 671.5062Q610.59375 672.5375 611.1094 673.08435Q611.625 673.6156 612.40625 673.6156Q612.9844 673.6156 613.3906 673.3187Q613.8125 673.0062 614.0469 672.35ZM610.59375 670.64685L614.0625 670.64685Q614.0 669.85 613.6719 669.45935Q613.15625 668.85 612.3594 668.85Q611.625 668.85 611.125 669.33435Q610.6406 669.8187 610.59375 670.64685ZM618.5156 674.35L616.15625 668.1312L617.2656 668.1312L618.6094 671.85Q618.8125 672.45935 619.0 673.1Q619.1406 672.6156 619.3906 671.9281L620.78125 668.1312L621.8594 668.1312L619.5 674.35L618.5156 674.35ZM626.0469 672.35L627.1406 672.475Q626.8906 673.4281 626.1875 673.95935Q625.4844 674.4906 624.40625 674.4906Q623.0469 674.4906 622.2344 673.64685Q621.4375 672.8031 621.4375 671.2875Q621.4375 669.725 622.25 668.8656Q623.0625 667.9906 624.34375 667.9906Q625.59375 667.9906 626.375 668.83435Q627.1719 669.6781 627.1719 671.225Q627.1719 671.3187 627.1719 671.5062L622.53125 671.5062Q622.59375 672.5375 623.1094 673.08435Q623.625 673.6156 624.40625 673.6156Q624.9844 673.6156 625.3906 673.3187Q625.8125 673.0062 626.0469 672.35ZM622.59375 670.64685L626.0625 670.64685Q626.0 669.85 625.6719 669.45935Q625.15625 668.85 624.3594 668.85Q623.625 668.85 623.125 669.33435Q622.6406 669.8187 622.59375 670.64685ZM628.7656 674.35L628.7656 665.7562L629.8281 665.7562L629.8281 674.35L628.7656 674.35Z" fill-rule="nonzero"/><path fill="#000000" d="M64.15 625.1156Q64.15 623.58435 64.4625 622.6625Q64.775 621.725 65.38438 621.225Q66.00938 620.725 66.94688 620.725Q67.63438 620.725 68.15 621.0062Q68.68125 621.2875 69.025 621.8187Q69.36875 622.33435 69.55625 623.08435Q69.74375 623.83435 69.74375 625.1156Q69.74375 626.6312 69.43125 627.5531Q69.13438 628.475 68.50938 628.9906Q67.9 629.4906 66.94688 629.4906Q65.7125 629.4906 64.99375 628.6Q64.15 627.5375 64.15 625.1156ZM65.22813 625.1156Q65.22813 627.225 65.72813 627.9281Q66.22813 628.6312 66.94688 628.6312Q67.68125 628.6312 68.16563 627.9281Q68.66563 627.225 68.66563 625.1156Q68.66563 622.9906 68.16563 622.3031Q67.68125 621.6 66.93125 621.6Q66.2125 621.6 65.775 622.20935Q65.22813 622.9906 65.22813 625.1156ZM71.74375 629.35L71.74375 628.14685L72.94688 628.14685L72.94688 629.35L71.74375 629.35ZM74.15 625.1156Q74.15 623.58435 74.4625 622.6625Q74.775 621.725 75.38438 621.225Q76.00938 620.725 76.94688 620.725Q77.63438 620.725 78.15 621.0062Q78.68125 621.2875 79.025 621.8187Q79.36875 622.33435 79.55625 623.08435Q79.74375 623.83435 79.74375 625.1156Q79.74375 626.6312 79.43125 627.5531Q79.13438 628.475 78.50938 628.9906Q77.9 629.4906 76.94688 629.4906Q75.7125 629.4906 74.99375 628.6Q74.15 627.5375 74.15 625.1156ZM75.22813 625.1156Q75.22813 627.225 75.72813 627.9281Q76.22813 628.6312 76.94688 628.6312Q77.68125 628.6312 78.16563 627.9281Q78.66563 627.225 78.66563 625.1156Q78.66563 622.9906 78.16563 622.3031Q77.68125 621.6 76.93125 621.6Q76.2125 621.6 75.775 622.20935Q75.22813 622.9906 75.22813 625.1156Z" fill-rule="nonzero"/><path fill="#000000" d="M48.696877 504.0427L48.696877 505.05832L43.009377 505.05832Q43.009377 504.68332 43.134377 504.32394Q43.353127 503.74582 43.821877 503.18332Q44.30625 502.62082 45.2125 501.88644Q46.61875 500.7302 47.103127 500.05832Q47.603127 499.38644 47.603127 498.7927Q47.603127 498.1677 47.15 497.74582Q46.696877 497.30832 45.978127 497.30832Q45.2125 497.30832 44.759377 497.76144Q44.30625 498.21457 44.290627 499.02707L43.2125 498.9177Q43.321877 497.69894 44.040627 497.07394Q44.775 496.43332 46.009377 496.43332Q47.24375 496.43332 47.9625 497.12082Q48.68125 497.80832 48.68125 498.82394Q48.68125 499.33957 48.4625 499.83957Q48.259377 500.32394 47.759377 500.88644Q47.275 501.43332 46.15 502.38644Q45.196877 503.18332 44.915627 503.4802Q44.65 503.76144 44.478127 504.0427L48.696877 504.0427ZM50.15 502.80832L51.259377 502.71457Q51.384377 503.52707 51.821877 503.93332Q52.275 504.33957 52.915627 504.33957Q53.665627 504.33957 54.196877 503.76144Q54.728127 503.18332 54.728127 502.24582Q54.728127 501.33957 54.2125 500.82394Q53.7125 500.2927 52.884377 500.2927Q52.384377 500.2927 51.9625 500.52707Q51.55625 500.76144 51.321877 501.12082L50.3375 500.99582L51.165627 496.58957L55.446877 496.58957L55.446877 497.58957L52.009377 497.58957L51.55625 499.90207Q52.321877 499.3552 53.165627 499.3552Q54.290627 499.3552 55.05625 500.13644Q55.8375 500.9177 55.8375 502.15207Q55.8375 503.30832 55.165627 504.1677Q54.3375 505.19894 52.915627 505.19894Q51.74375 505.19894 50.99375 504.5427Q50.259377 503.88644 50.15 502.80832ZM57.15 500.82394Q57.15 499.2927 57.4625 498.37082Q57.775 497.43332 58.384377 496.93332Q59.009377 496.43332 59.946877 496.43332Q60.634377 496.43332 61.15 496.71457Q61.68125 496.99582 62.025 497.52707Q62.36875 498.0427 62.55625 498.7927Q62.74375 499.5427 62.74375 500.82394Q62.74375 502.33957 62.43125 503.26144Q62.134377 504.18332 61.509377 504.69894Q60.9 505.19894 59.946877 505.19894Q58.7125 505.19894 57.99375 504.30832Q57.15 503.24582 57.15 500.82394ZM58.228127 500.82394Q58.228127 502.93332 58.728127 503.63644Q59.228127 504.33957 59.946877 504.33957Q60.68125 504.33957 61.165627 503.63644Q61.665627 502.93332 61.665627 500.82394Q61.665627 498.69894 61.165627 498.01144Q60.68125 497.30832 59.93125 497.30832Q59.2125 497.30832 58.775 497.9177Q58.228127 498.69894 58.228127 500.82394ZM64.15 500.82394Q64.15 499.2927 64.4625 498.37082Q64.775 497.43332 65.38438 496.93332Q66.00938 496.43332 66.94688 496.43332Q67.63438 496.43332 68.15 496.71457Q68.68125 496.99582 69.025 497.52707Q69.36875 498.0427 69.55625 498.7927Q69.74375 499.5427 69.74375 500.82394Q69.74375 502.33957 69.43125 503.26144Q69.13438 504.18332 68.50938 504.69894Q67.9 505.19894 66.94688 505.19894Q65.7125 505.19894 64.99375 504.30832Q64.15 503.24582 64.15 500.82394ZM65.22813 500.82394Q65.22813 502.93332 65.72813 503.63644Q66.22813 504.33957 66.94688 504.33957Q67.68125 504.33957 68.16563 503.63644Q68.66563 502.93332 68.66563 500.82394Q68.66563 498.69894 68.16563 498.01144Q67.68125 497.30832 66.93125 497.30832Q66.2125 497.30832 65.775 497.9177Q65.22813 498.69894 65.22813 500.82394ZM71.74375 505.05832L71.74375 503.8552L72.94688 503.8552L72.94688 505.05832L71.74375 505.05832ZM74.15 500.82394Q74.15 499.2927 74.4625 498.37082Q74.775 497.43332 75.38438 496.93332Q76.00938 496.43332 76.94688 496.43332Q77.63438 496.43332 78.15 496.71457Q78.68125 496.99582 79.025 497.52707Q79.36875 498.0427 79.55625 498.7927Q79.74375 499.5427 79.74375 500.82394Q79.74375 502.33957 79.43125 503.26144Q79.13438 504.18332 78.50938 504.69894Q77.9 505.19894 76.94688 505.19894Q75.7125 505.19894 74.99375 504.30832Q74.15 503.24582 74.15 500.82394ZM75.22813 500.82394Q75.22813 502.93332 75.72813 503.63644Q76.22813 504.33957 76.94688 504.33957Q77.68125 504.33957 78.16563 503.63644Q78.66563 502.93332 78.66563 500.82394Q78.66563 498.69894 78.16563 498.01144Q77.68125 497.30832 76.93125 497.30832Q76.2125 497.30832 75.775 497.9177Q75.22813 498.69894 75.22813 500.82394Z" fill-rule="nonzero"/><path fill="#000000" d="M43.15 378.51666L44.259377 378.4229Q44.384377 379.2354 44.821877 379.64166Q45.275 380.0479 45.915627 380.0479Q46.665627 380.0479 47.196877 379.4698Q47.728127 378.89166 47.728127 377.95416Q47.728127 377.0479 47.2125 376.5323Q46.7125 376.00104 45.884377 376.00104Q45.384377 376.00104 44.9625 376.2354Q44.55625 376.4698 44.321877 376.82916L43.3375 376.70416L44.165627 372.2979L48.446877 372.2979L48.446877 373.2979L45.009377 373.2979L44.55625 375.6104Q45.321877 375.06354 46.165627 375.06354Q47.290627 375.06354 48.05625 375.8448Q48.8375 376.62604 48.8375 377.8604Q48.8375 379.01666 48.165627 379.87604Q47.3375 380.9073 45.915627 380.9073Q44.74375 380.9073 43.99375 380.25104Q43.259377 379.5948 43.15 378.51666ZM50.15 376.5323Q50.15 375.00104 50.4625 374.07916Q50.775 373.14166 51.384377 372.64166Q52.009377 372.14166 52.946877 372.14166Q53.634377 372.14166 54.15 372.4229Q54.68125 372.70416 55.025 373.2354Q55.36875 373.75104 55.55625 374.50104Q55.74375 375.25104 55.74375 376.5323Q55.74375 378.0479 55.43125 378.9698Q55.134377 379.89166 54.509377 380.4073Q53.9 380.9073 52.946877 380.9073Q51.7125 380.9073 50.99375 380.01666Q50.15 378.95416 50.15 376.5323ZM51.228127 376.5323Q51.228127 378.64166 51.728127 379.3448Q52.228127 380.0479 52.946877 380.0479Q53.68125 380.0479 54.165627 379.3448Q54.665627 378.64166 54.665627 376.5323Q54.665627 374.4073 54.165627 373.7198Q53.68125 373.01666 52.93125 373.01666Q52.2125 373.01666 51.775 373.62604Q51.228127 374.4073 51.228127 376.5323ZM57.15 376.5323Q57.15 375.00104 57.4625 374.07916Q57.775 373.14166 58.384377 372.64166Q59.009377 372.14166 59.946877 372.14166Q60.634377 372.14166 61.15 372.4229Q61.68125 372.70416 62.025 373.2354Q62.36875 373.75104 62.55625 374.50104Q62.74375 375.25104 62.74375 376.5323Q62.74375 378.0479 62.43125 378.9698Q62.134377 379.89166 61.509377 380.4073Q60.9 380.9073 59.946877 380.9073Q58.7125 380.9073 57.99375 380.01666Q57.15 378.95416 57.15 376.5323ZM58.228127 376.5323Q58.228127 378.64166 58.728127 379.3448Q59.228127 380.0479 59.946877 380.0479Q60.68125 380.0479 61.165627 379.3448Q61.665627 378.64166 61.665627 376.5323Q61.665627 374.4073 61.165627 373.7198Q60.68125 373.01666 59.93125 373.01666Q59.2125 373.01666 58.775 373.62604Q58.228127 374.4073 58.228127 376.5323ZM64.15 376.5323Q64.15 375.00104 64.4625 374.07916Q64.775 373.14166 65.38438 372.64166Q66.00938 372.14166 66.94688 372.14166Q67.63438 372.14166 68.15 372.4229Q68.68125 372.70416 69.025 373.2354Q69.36875 373.75104 69.55625 374.50104Q69.74375 375.25104 69.74375 376.5323Q69.74375 378.0479 69.43125 378.9698Q69.13438 379.89166 68.50938 380.4073Q67.9 380.9073 66.94688 380.9073Q65.7125 380.9073 64.99375 380.01666Q64.15 378.95416 64.15 376.5323ZM65.22813 376.5323Q65.22813 378.64166 65.72813 379.3448Q66.22813 380.0479 66.94688 380.0479Q67.68125 380.0479 68.16563 379.3448Q68.66563 378.64166 68.66563 376.5323Q68.66563 374.4073 68.16563 373.7198Q67.68125 373.01666 66.93125 373.01666Q66.2125 373.01666 65.775 373.62604Q65.22813 374.4073 65.22813 376.5323ZM71.74375 380.76666L71.74375 379.56354L72.94688 379.56354L72.94688 380.76666L71.74375 380.76666ZM74.15 376.5323Q74.15 375.00104 74.4625 374.07916Q74.775 373.14166 75.38438 372.64166Q76.00938 372.14166 76.94688 372.14166Q77.63438 372.14166 78.15 372.4229Q78.68125 372.70416 79.025 373.2354Q79.36875 373.75104 79.55625 374.50104Q79.74375 375.25104 79.74375 376.5323Q79.74375 378.0479 79.43125 378.9698Q79.13438 379.89166 78.50938 380.4073Q77.9 380.9073 76.94688 380.9073Q75.7125 380.9073 74.99375 380.01666Q74.15 378.95416 74.15 376.5323ZM75.22813 376.5323Q75.22813 378.64166 75.72813 379.3448Q76.22813 380.0479 76.94688 380.0479Q77.68125 380.0479 78.16563 379.3448Q78.66563 378.64166 78.66563 376.5323Q78.66563 374.4073 78.16563 373.7198Q77.68125 373.01666 76.93125 373.01666Q76.2125 373.01666 75.775 373.62604Q75.22813 374.4073 75.22813 376.5323Z" fill-rule="nonzero"/><path fill="#000000" d="M43.2125 249.00626L43.2125 247.99063L48.775 247.99063L48.775 248.81876Q47.9625 249.69376 47.15 251.14688Q46.353127 252.58438 45.915627 254.11563Q45.5875 255.19376 45.509377 256.475L44.415627 256.475Q44.43125 255.45938 44.80625 254.02188Q45.196877 252.58438 45.9 251.25626Q46.61875 249.92813 47.43125 249.00626L43.2125 249.00626ZM50.15 254.225L51.259377 254.13126Q51.384377 254.94376 51.821877 255.35Q52.275 255.75626 52.915627 255.75626Q53.665627 255.75626 54.196877 255.17813Q54.728127 254.6 54.728127 253.6625Q54.728127 252.75626 54.2125 252.24063Q53.7125 251.70938 52.884377 251.70938Q52.384377 251.70938 51.9625 251.94376Q51.55625 252.17813 51.321877 252.5375L50.3375 252.4125L51.165627 248.00626L55.446877 248.00626L55.446877 249.00626L52.009377 249.00626L51.55625 251.31876Q52.321877 250.77188 53.165627 250.77188Q54.290627 250.77188 55.05625 251.55313Q55.8375 252.33438 55.8375 253.56876Q55.8375 254.725 55.165627 255.58438Q54.3375 256.61563 52.915627 256.61563Q51.74375 256.61563 50.99375 255.95938Q50.259377 255.30313 50.15 254.225ZM57.15 252.24063Q57.15 250.70938 57.4625 249.7875Q57.775 248.85 58.384377 248.35Q59.009377 247.85 59.946877 247.85Q60.634377 247.85 61.15 248.13126Q61.68125 248.4125 62.025 248.94376Q62.36875 249.45938 62.55625 250.20938Q62.74375 250.95938 62.74375 252.24063Q62.74375 253.75626 62.43125 254.67813Q62.134377 255.6 61.509377 256.11563Q60.9 256.61563 59.946877 256.61563Q58.7125 256.61563 57.99375 255.725Q57.15 254.6625 57.15 252.24063ZM58.228127 252.24063Q58.228127 254.35 58.728127 255.05313Q59.228127 255.75626 59.946877 255.75626Q60.68125 255.75626 61.165627 255.05313Q61.665627 254.35 61.665627 252.24063Q61.665627 250.11563 61.165627 249.42813Q60.68125 248.725 59.93125 248.725Q59.2125 248.725 58.775 249.33438Q58.228127 250.11563 58.228127 252.24063ZM64.15 252.24063Q64.15 250.70938 64.4625 249.7875Q64.775 248.85 65.38438 248.35Q66.00938 247.85 66.94688 247.85Q67.63438 247.85 68.15 248.13126Q68.68125 248.4125 69.025 248.94376Q69.36875 249.45938 69.55625 250.20938Q69.74375 250.95938 69.74375 252.24063Q69.74375 253.75626 69.43125 254.67813Q69.13438 255.6 68.50938 256.11563Q67.9 256.61563 66.94688 256.61563Q65.7125 256.61563 64.99375 255.725Q64.15 254.6625 64.15 252.24063ZM65.22813 252.24063Q65.22813 254.35 65.72813 255.05313Q66.22813 255.75626 66.94688 255.75626Q67.68125 255.75626 68.16563 255.05313Q68.66563 254.35 68.66563 252.24063Q68.66563 250.11563 68.16563 249.42813Q67.68125 248.725 66.93125 248.725Q66.2125 248.725 65.775 249.33438Q65.22813 250.11563 65.22813 252.24063ZM71.74375 256.475L71.74375 255.27188L72.94688 255.27188L72.94688 256.475L71.74375 256.475ZM74.15 252.24063Q74.15 250.70938 74.4625 249.7875Q74.775 248.85 75.38438 248.35Q76.00938 247.85 76.94688 247.85Q77.63438 247.85 78.15 248.13126Q78.68125 248.4125 79.025 248.94376Q79.36875 249.45938 79.55625 250.20938Q79.74375 250.95938 79.74375 252.24063Q79.74375 253.75626 79.43125 254.67813Q79.13438 255.6 78.50938 256.11563Q77.9 256.61563 76.94688 256.61563Q75.7125 256.61563 74.99375 255.725Q74.15 254.6625 74.15 252.24063ZM75.22813 252.24063Q75.22813 254.35 75.72813 255.05313Q76.22813 255.75626 76.94688 255.75626Q77.68125 255.75626 78.16563 255.05313Q78.66563 254.35 78.66563 252.24063Q78.66563 250.11563 78.16563 249.42813Q77.68125 248.725 76.93125 248.725Q76.2125 248.725 75.775 249.33438Q75.22813 250.11563 75.22813 252.24063Z" fill-rule="nonzero"/><path fill="#000000" d="M40.11875 132.18333L39.071877 132.18333L39.071877 125.464584Q38.68125 125.82396 38.05625 126.19896Q37.446877 126.558334 36.9625 126.73021L36.9625 125.714584Q37.8375 125.29271 38.49375 124.714584Q39.165627 124.120834 39.446877 123.558334L40.11875 123.558334L40.11875 132.18333ZM43.15 127.94896Q43.15 126.41771 43.4625 125.495834Q43.775 124.558334 44.384377 124.058334Q45.009377 123.558334 45.946877 123.558334Q46.634377 123.558334 47.15 123.839584Q47.68125 124.120834 48.025 124.652084Q48.36875 125.16771 48.55625 125.91771Q48.74375 126.66771 48.74375 127.94896Q48.74375 129.46458 48.43125 130.38646Q48.134377 131.30833 47.509377 131.82396Q46.9 132.32396 45.946877 132.32396Q44.7125 132.32396 43.99375 131.43333Q43.15 130.37083 43.15 127.94896ZM44.228127 127.94896Q44.228127 130.05833 44.728127 130.76146Q45.228127 131.46458 45.946877 131.46458Q46.68125 131.46458 47.165627 130.76146Q47.665627 130.05833 47.665627 127.94896Q47.665627 125.82396 47.165627 125.13646Q46.68125 124.433334 45.93125 124.433334Q45.2125 124.433334 44.775 125.04271Q44.228127 125.82396 44.228127 127.94896ZM50.15 127.94896Q50.15 126.41771 50.4625 125.495834Q50.775 124.558334 51.384377 124.058334Q52.009377 123.558334 52.946877 123.558334Q53.634377 123.558334 54.15 123.839584Q54.68125 124.120834 55.025 124.652084Q55.36875 125.16771 55.55625 125.91771Q55.74375 126.66771 55.74375 127.94896Q55.74375 129.46458 55.43125 130.38646Q55.134377 131.30833 54.509377 131.82396Q53.9 132.32396 52.946877 132.32396Q51.7125 132.32396 50.99375 131.43333Q50.15 130.37083 50.15 127.94896ZM51.228127 127.94896Q51.228127 130.05833 51.728127 130.76146Q52.228127 131.46458 52.946877 131.46458Q53.68125 131.46458 54.165627 130.76146Q54.665627 130.05833 54.665627 127.94896Q54.665627 125.82396 54.165627 125.13646Q53.68125 124.433334 52.93125 124.433334Q52.2125 124.433334 51.775 125.04271Q51.228127 125.82396 51.228127 127.94896ZM57.15 127.94896Q57.15 126.41771 57.4625 125.495834Q57.775 124.558334 58.384377 124.058334Q59.009377 123.558334 59.946877 123.558334Q60.634377 123.558334 61.15 123.839584Q61.68125 124.120834 62.025 124.652084Q62.36875 125.16771 62.55625 125.91771Q62.74375 126.66771 62.74375 127.94896Q62.74375 129.46458 62.43125 130.38646Q62.134377 131.30833 61.509377 131.82396Q60.9 132.32396 59.946877 132.32396Q58.7125 132.32396 57.99375 131.43333Q57.15 130.37083 57.15 127.94896ZM58.228127 127.94896Q58.228127 130.05833 58.728127 130.76146Q59.228127 131.46458 59.946877 131.46458Q60.68125 131.46458 61.165627 130.76146Q61.665627 130.05833 61.665627 127.94896Q61.665627 125.82396 61.165627 125.13646Q60.68125 124.433334 59.93125 124.433334Q59.2125 124.433334 58.775 125.04271Q58.228127 125.82396 58.228127 127.94896ZM64.15 127.94896Q64.15 126.41771 64.4625 125.495834Q64.775 124.558334 65.38438 124.058334Q66.00938 123.558334 66.94688 123.558334Q67.63438 123.558334 68.15 123.839584Q68.68125 124.120834 69.025 124.652084Q69.36875 125.16771 69.55625 125.91771Q69.74375 126.66771 69.74375 127.94896Q69.74375 129.46458 69.43125 130.38646Q69.13438 131.30833 68.50938 131.82396Q67.9 132.32396 66.94688 132.32396Q65.7125 132.32396 64.99375 131.43333Q64.15 130.37083 64.15 127.94896ZM65.22813 127.94896Q65.22813 130.05833 65.72813 130.76146Q66.22813 131.46458 66.94688 131.46458Q67.68125 131.46458 68.16563 130.76146Q68.66563 130.05833 68.66563 127.94896Q68.66563 125.82396 68.16563 125.13646Q67.68125 124.433334 66.93125 124.433334Q66.2125 124.433334 65.775 125.04271Q65.22813 125.82396 65.22813 127.94896ZM71.74375 132.18333L71.74375 130.98021L72.94688 130.98021L72.94688 132.18333L71.74375 132.18333ZM74.15 127.94896Q74.15 126.41771 74.4625 125.495834Q74.775 124.558334 75.38438 124.058334Q76.00938 123.558334 76.94688 123.558334Q77.63438 123.558334 78.15 123.839584Q78.68125 124.120834 79.025 124.652084Q79.36875 125.16771 79.55625 125.91771Q79.74375 126.66771 79.74375 127.94896Q79.74375 129.46458 79.43125 130.38646Q79.13438 131.30833 78.50938 131.82396Q77.9 132.32396 76.94688 132.32396Q75.7125 132.32396 74.99375 131.43333Q74.15 130.37083 74.15 127.94896ZM75.22813 127.94896Q75.22813 130.05833 75.72813 130.76146Q76.22813 131.46458 76.94688 131.46458Q77.68125 131.46458 78.16563 130.76146Q78.66563 130.05833 78.66563 127.94896Q78.66563 125.82396 78.16563 125.13646Q77.68125 124.433334 76.93125 124.433334Q76.2125 124.433334 75.775 125.04271Q75.22813 125.82396 75.22813 127.94896Z" fill-rule="nonzero"/><path fill="#000000" d="M119.31979 642.35L119.31979 633.7562L120.38229 633.7562L120.38229 642.35L119.31979 642.35ZM124.06979 642.35L121.71042 636.1312L122.81979 636.1312L124.16354 639.85Q124.36667 640.45935 124.55417 641.1Q124.69479 640.6156 124.94479 639.9281L126.33542 636.1312L127.41354 636.1312L125.05417 642.35L124.06979 642.35ZM132.60104 641.33435L132.60104 642.35L126.91354 642.35Q126.91354 641.975 127.03854 641.6156Q127.25729 641.0375 127.72604 640.475Q128.21042 639.9125 129.11667 639.1781Q130.52292 638.02185 131.0073 637.35Q131.5073 636.6781 131.5073 636.08435Q131.5073 635.45935 131.05417 635.0375Q130.60104 634.6 129.8823 634.6Q129.11667 634.6 128.66354 635.0531Q128.21042 635.5062 128.1948 636.3187L127.11667 636.20935Q127.22604 634.9906 127.94479 634.3656Q128.67917 633.725 129.91354 633.725Q131.14792 633.725 131.86667 634.4125Q132.58542 635.1 132.58542 636.1156Q132.58542 636.6312 132.36667 637.1312Q132.16354 637.6156 131.66354 638.1781Q131.17917 638.725 130.05417 639.6781Q129.10104 640.475 128.8198 640.77185Q128.55417 641.0531 128.3823 641.33435L132.60104 641.33435ZM134.05417 638.1156Q134.05417 636.58435 134.36667 635.6625Q134.67917 634.725 135.28854 634.225Q135.91354 633.725 136.85104 633.725Q137.53854 633.725 138.05417 634.0062Q138.58542 634.2875 138.92917 634.8187Q139.27292 635.33435 139.46042 636.08435Q139.64792 636.83435 139.64792 638.1156Q139.64792 639.6312 139.33542 640.5531Q139.03854 641.475 138.41354 641.9906Q137.80417 642.4906 136.85104 642.4906Q135.61667 642.4906 134.89792 641.6Q134.05417 640.5375 134.05417 638.1156ZM135.1323 638.1156Q135.1323 640.225 135.6323 640.9281Q136.1323 641.6312 136.85104 641.6312Q137.58542 641.6312 138.0698 640.9281Q138.5698 640.225 138.5698 638.1156Q138.5698 635.9906 138.0698 635.3031Q137.58542 634.6 136.83542 634.6Q136.11667 634.6 135.67917 635.20935Q135.1323 635.9906 135.1323 638.1156Z" fill-rule="nonzero"/><path fill="#000000" d="M205.12813 642.35L205.12813 633.7562L206.19063 633.7562L206.19063 642.35L205.12813 642.35ZM209.87813 642.35L207.51875 636.1312L208.62813 636.1312L209.97188 639.85Q210.175 640.45935 210.3625 641.1Q210.50313 640.6156 210.75313 639.9281L212.14375 636.1312L213.22188 636.1312L210.8625 642.35L209.87813 642.35ZM218.40938 641.33435L218.40938 642.35L212.72188 642.35Q212.72188 641.975 212.84688 641.6156Q213.06563 641.0375 213.53438 640.475Q214.01875 639.9125 214.925 639.1781Q216.33125 638.02185 216.81563 637.35Q217.31563 636.6781 217.31563 636.08435Q217.31563 635.45935 216.8625 635.0375Q216.40938 634.6 215.69063 634.6Q214.925 634.6 214.47188 635.0531Q214.01875 635.5062 214.00313 636.3187L212.925 636.20935Q213.03438 634.9906 213.75313 634.3656Q214.4875 633.725 215.72188 633.725Q216.95625 633.725 217.675 634.4125Q218.39375 635.1 218.39375 636.1156Q218.39375 636.6312 218.175 637.1312Q217.97188 637.6156 217.47188 638.1781Q216.9875 638.725 215.8625 639.6781Q214.90938 640.475 214.62813 640.77185Q214.3625 641.0531 214.19063 641.33435L218.40938 641.33435ZM223.83125 642.35L222.78438 642.35L222.78438 635.6312Q222.39375 635.9906 221.76875 636.3656Q221.15938 636.725 220.675 636.89685L220.675 635.8812Q221.55 635.45935 222.20625 634.8812Q222.87813 634.2875 223.15938 633.725L223.83125 633.725L223.83125 642.35Z" fill-rule="nonzero"/><path fill="#000000" d="M290.93646 642.35L290.93646 633.7562L291.99896 633.7562L291.99896 642.35L290.93646 642.35ZM295.68646 642.35L293.3271 636.1312L294.43646 636.1312L295.7802 639.85Q295.98334 640.45935 296.17084 641.1Q296.31146 640.6156 296.56146 639.9281L297.9521 636.1312L299.0302 636.1312L296.67084 642.35L295.68646 642.35ZM304.2177 641.33435L304.2177 642.35L298.5302 642.35Q298.5302 641.975 298.6552 641.6156Q298.87396 641.0375 299.3427 640.475Q299.8271 639.9125 300.73334 639.1781Q302.1396 638.02185 302.62396 637.35Q303.12396 636.6781 303.12396 636.08435Q303.12396 635.45935 302.67084 635.0375Q302.2177 634.6 301.49896 634.6Q300.73334 634.6 300.2802 635.0531Q299.8271 635.5062 299.81146 636.3187L298.73334 636.20935Q298.8427 634.9906 299.56146 634.3656Q300.29584 633.725 301.5302 633.725Q302.7646 633.725 303.48334 634.4125Q304.2021 635.1 304.2021 636.1156Q304.2021 636.6312 303.98334 637.1312Q303.7802 637.6156 303.2802 638.1781Q302.79584 638.725 301.67084 639.6781Q300.7177 640.475 300.43646 640.77185Q300.17084 641.0531 299.99896 641.33435L304.2177 641.33435ZM311.2177 641.33435L311.2177 642.35L305.5302 642.35Q305.5302 641.975 305.6552 641.6156Q305.87396 641.0375 306.3427 640.475Q306.8271 639.9125 307.73334 639.1781Q309.1396 638.02185 309.62396 637.35Q310.12396 636.6781 310.12396 636.08435Q310.12396 635.45935 309.67084 635.0375Q309.2177 634.6 308.49896 634.6Q307.73334 634.6 307.2802 635.0531Q306.8271 635.5062 306.81146 636.3187L305.73334 636.20935Q305.8427 634.9906 306.56146 634.3656Q307.29584 633.725 308.5302 633.725Q309.7646 633.725 310.48334 634.4125Q311.2021 635.1 311.2021 636.1156Q311.2021 636.6312 310.98334 637.1312Q310.7802 637.6156 310.2802 638.1781Q309.79584 638.725 308.67084 639.6781Q307.7177 640.475 307.43646 640.77185Q307.17084 641.0531 306.99896 641.33435L311.2177 641.33435Z" fill-rule="nonzero"/><path fill="#000000" d="M376.74478 642.35L376.74478 633.7562L377.80728 633.7562L377.80728 642.35L376.74478 642.35ZM381.49478 642.35L379.1354 636.1312L380.24478 636.1312L381.58853 639.85Q381.79166 640.45935 381.97916 641.1Q382.11978 640.6156 382.36978 639.9281L383.7604 636.1312L384.83853 636.1312L382.47916 642.35L381.49478 642.35ZM390.02603 641.33435L390.02603 642.35L384.33853 642.35Q384.33853 641.975 384.46353 641.6156Q384.68228 641.0375 385.15103 640.475Q385.6354 639.9125 386.54166 639.1781Q387.9479 638.02185 388.43228 637.35Q388.93228 636.6781 388.93228 636.08435Q388.93228 635.45935 388.47916 635.0375Q388.02603 634.6 387.30728 634.6Q386.54166 634.6 386.08853 635.0531Q385.6354 635.5062 385.61978 636.3187L384.54166 636.20935Q384.65103 634.9906 385.36978 634.3656Q386.10416 633.725 387.33853 633.725Q388.5729 633.725 389.29166 634.4125Q390.0104 635.1 390.0104 636.1156Q390.0104 636.6312 389.79166 637.1312Q389.58853 637.6156 389.08853 638.1781Q388.60416 638.725 387.47916 639.6781Q386.52603 640.475 386.24478 640.77185Q385.97916 641.0531 385.80728 641.33435L390.02603 641.33435ZM391.47916 640.08435L392.54166 639.9437Q392.71353 640.83435 393.15103 641.2406Q393.58853 641.6312 394.21353 641.6312Q394.96353 641.6312 395.47916 641.1156Q395.99478 640.6 395.99478 639.83435Q395.99478 639.1156 395.5104 638.64685Q395.04166 638.1625 394.30728 638.1625Q394.0104 638.1625 393.55728 638.2875L393.68228 637.35Q393.79166 637.3656 393.85416 637.3656Q394.52603 637.3656 395.05728 637.02185Q395.60416 636.6625 395.60416 635.9281Q395.60416 635.35 395.21353 634.975Q394.8229 634.58435 394.1979 634.58435Q393.58853 634.58435 393.16666 634.975Q392.7604 635.3656 392.65103 636.1312L391.58853 635.9437Q391.77603 634.89685 392.46353 634.3187Q393.15103 633.725 394.16666 633.725Q394.86978 633.725 395.46353 634.0375Q396.05728 634.33435 396.36978 634.85Q396.68228 635.3656 396.68228 635.95935Q396.68228 636.5062 396.3854 636.975Q396.08853 637.4281 395.5104 637.6937Q396.2604 637.8656 396.68228 638.4281Q397.10416 638.975 397.10416 639.8187Q397.10416 640.9437 396.27603 641.725Q395.46353 642.5062 394.21353 642.5062Q393.08853 642.5062 392.33853 641.83435Q391.58853 641.14685 391.47916 640.08435Z" fill-rule="nonzero"/><path fill="#000000" d="M462.55313 642.35L462.55313 633.7562L463.61563 633.7562L463.61563 642.35L462.55313 642.35ZM467.30313 642.35L464.94376 636.1312L466.05313 636.1312L467.39688 639.85Q467.6 640.45935 467.7875 641.1Q467.92813 640.6156 468.17813 639.9281L469.56876 636.1312L470.64688 636.1312L468.2875 642.35L467.30313 642.35ZM475.83438 641.33435L475.83438 642.35L470.14688 642.35Q470.14688 641.975 470.27188 641.6156Q470.49063 641.0375 470.95938 640.475Q471.44376 639.9125 472.35 639.1781Q473.75626 638.02185 474.24063 637.35Q474.74063 636.6781 474.74063 636.08435Q474.74063 635.45935 474.2875 635.0375Q473.83438 634.6 473.11563 634.6Q472.35 634.6 471.89688 635.0531Q471.44376 635.5062 471.42813 636.3187L470.35 636.20935Q470.45938 634.9906 471.17813 634.3656Q471.9125 633.725 473.14688 633.725Q474.38126 633.725 475.1 634.4125Q475.81876 635.1 475.81876 636.1156Q475.81876 636.6312 475.6 637.1312Q475.39688 637.6156 474.89688 638.1781Q474.4125 638.725 473.2875 639.6781Q472.33438 640.475 472.05313 640.77185Q471.7875 641.0531 471.61563 641.33435L475.83438 641.33435ZM480.6625 642.35L480.6625 640.2875L476.94376 640.2875L476.94376 639.3187L480.86563 633.7562L481.725 633.7562L481.725 639.3187L482.88126 639.3187L482.88126 640.2875L481.725 640.2875L481.725 642.35L480.6625 642.35ZM480.6625 639.3187L480.6625 635.45935L477.975 639.3187L480.6625 639.3187Z" fill-rule="nonzero"/><path fill="#000000" d="M548.36145 642.35L548.36145 633.7562L549.42395 633.7562L549.42395 642.35L548.36145 642.35ZM553.11145 642.35L550.7521 636.1312L551.86145 636.1312L553.2052 639.85Q553.4083 640.45935 553.5958 641.1Q553.73645 640.6156 553.98645 639.9281L555.3771 636.1312L556.4552 636.1312L554.0958 642.35L553.11145 642.35ZM561.6427 641.33435L561.6427 642.35L555.9552 642.35Q555.9552 641.975 556.0802 641.6156Q556.29895 641.0375 556.7677 640.475Q557.2521 639.9125 558.1583 639.1781Q559.5646 638.02185 560.04895 637.35Q560.54895 636.6781 560.54895 636.08435Q560.54895 635.45935 560.0958 635.0375Q559.6427 634.6 558.92395 634.6Q558.1583 634.6 557.7052 635.0531Q557.2521 635.5062 557.23645 636.3187L556.1583 636.20935Q556.2677 634.9906 556.98645 634.3656Q557.7208 633.725 558.9552 633.725Q560.1896 633.725 560.9083 634.4125Q561.6271 635.1 561.6271 636.1156Q561.6271 636.6312 561.4083 637.1312Q561.2052 637.6156 560.7052 638.1781Q560.2208 638.725 559.0958 639.6781Q558.1427 640.475 557.86145 640.77185Q557.5958 641.0531 557.42395 641.33435L561.6427 641.33435ZM563.0958 640.1L564.2052 640.0062Q564.3302 640.8187 564.7677 641.225Q565.2208 641.6312 565.86145 641.6312Q566.61145 641.6312 567.1427 641.0531Q567.67395 640.475 567.67395 639.5375Q567.67395 638.6312 567.1583 638.1156Q566.6583 637.58435 565.8302 637.58435Q565.3302 637.58435 564.9083 637.8187Q564.5021 638.0531 564.2677 638.4125L563.2833 638.2875L564.11145 633.8812L568.3927 633.8812L568.3927 634.8812L564.9552 634.8812L564.5021 637.1937Q565.2677 636.64685 566.11145 636.64685Q567.23645 636.64685 568.0021 637.4281Q568.7833 638.20935 568.7833 639.4437Q568.7833 640.6 568.11145 641.45935Q567.2833 642.4906 565.86145 642.4906Q564.6896 642.4906 563.9396 641.83435Q563.2052 641.1781 563.0958 640.1Z" fill-rule="nonzero"/><path fill="#000000" d="M634.1698 642.35L634.1698 633.7562L635.2323 633.7562L635.2323 642.35L634.1698 642.35ZM638.9198 642.35L636.5604 636.1312L637.6698 636.1312L639.01355 639.85Q639.2167 640.45935 639.4042 641.1Q639.5448 640.6156 639.7948 639.9281L641.1854 636.1312L642.26355 636.1312L639.9042 642.35L638.9198 642.35ZM647.45105 641.33435L647.45105 642.35L641.76355 642.35Q641.76355 641.975 641.88855 641.6156Q642.1073 641.0375 642.57605 640.475Q643.0604 639.9125 643.9667 639.1781Q645.3729 638.02185 645.8573 637.35Q646.3573 636.6781 646.3573 636.08435Q646.3573 635.45935 645.9042 635.0375Q645.45105 634.6 644.7323 634.6Q643.9667 634.6 643.51355 635.0531Q643.0604 635.5062 643.0448 636.3187L641.9667 636.20935Q642.07605 634.9906 642.7948 634.3656Q643.5292 633.725 644.76355 633.725Q645.9979 633.725 646.7167 634.4125Q647.4354 635.1 647.4354 636.1156Q647.4354 636.6312 647.2167 637.1312Q647.01355 637.6156 646.51355 638.1781Q646.0292 638.725 644.9042 639.6781Q643.95105 640.475 643.6698 640.77185Q643.4042 641.0531 643.2323 641.33435L647.45105 641.33435ZM654.3729 635.8656L653.32605 635.9437Q653.1854 635.3187 652.9354 635.0375Q652.4979 634.58435 651.8729 634.58435Q651.3729 634.58435 650.9823 634.8656Q650.4979 635.2406 650.20105 635.9437Q649.9198 636.6312 649.9042 637.9125Q650.2792 637.33435 650.82605 637.0531Q651.38855 636.77185 651.9979 636.77185Q653.0448 636.77185 653.7792 637.5531Q654.5292 638.33435 654.5292 639.5531Q654.5292 640.3656 654.1698 641.0687Q653.82605 641.7562 653.2167 642.1312Q652.6073 642.4906 651.8417 642.4906Q650.51355 642.4906 649.6854 641.52185Q648.8573 640.5531 648.8573 638.33435Q648.8573 635.83435 649.7792 634.70935Q650.57605 633.725 651.9354 633.725Q652.95105 633.725 653.5917 634.3031Q654.2479 634.8656 654.3729 635.8656ZM650.07605 639.5687Q650.07605 640.1156 650.2948 640.6156Q650.5292 641.1 650.9354 641.3656Q651.3573 641.6312 651.82605 641.6312Q652.4823 641.6312 652.9667 641.1Q653.45105 640.5531 653.45105 639.6312Q653.45105 638.7406 652.9667 638.225Q652.4979 637.70935 651.7792 637.70935Q651.0604 637.70935 650.5604 638.225Q650.07605 638.7406 650.07605 639.5687Z" fill-rule="nonzero"/><path fill="#000000" d="M719.97815 642.35L719.97815 633.7562L721.04065 633.7562L721.04065 642.35L719.97815 642.35ZM724.72815 642.35L722.3688 636.1312L723.47815 636.1312L724.8219 639.85Q725.025 640.45935 725.2125 641.1Q725.35315 640.6156 725.60315 639.9281L726.9938 636.1312L728.0719 636.1312L725.7125 642.35L724.72815 642.35ZM733.2594 641.33435L733.2594 642.35L727.5719 642.35Q727.5719 641.975 727.6969 641.6156Q727.91565 641.0375 728.3844 640.475Q728.8688 639.9125 729.775 639.1781Q731.1813 638.02185 731.66565 637.35Q732.16565 636.6781 732.16565 636.08435Q732.16565 635.45935 731.7125 635.0375Q731.2594 634.6 730.54065 634.6Q729.775 634.6 729.3219 635.0531Q728.8688 635.5062 728.85315 636.3187L727.775 636.20935Q727.8844 634.9906 728.60315 634.3656Q729.3375 633.725 730.5719 633.725Q731.8063 633.725 732.525 634.4125Q733.2438 635.1 733.2438 636.1156Q733.2438 636.6312 733.025 637.1312Q732.8219 637.6156 732.3219 638.1781Q731.8375 638.725 730.7125 639.6781Q729.7594 640.475 729.47815 640.77185Q729.2125 641.0531 729.04065 641.33435L733.2594 641.33435ZM734.775 634.8812L734.775 633.8656L740.3375 633.8656L740.3375 634.6937Q739.525 635.5687 738.7125 637.02185Q737.91565 638.45935 737.47815 639.9906Q737.15 641.0687 737.0719 642.35L735.97815 642.35Q735.9938 641.33435 736.3688 639.89685Q736.7594 638.45935 737.4625 637.1312Q738.1813 635.8031 738.9938 634.8812L734.775 634.8812Z" fill-rule="nonzero"/><path fill="#000000" d="M805.78644 642.35L805.78644 633.7562L806.84894 633.7562L806.84894 642.35L805.78644 642.35ZM810.53644 642.35L808.17706 636.1312L809.28644 636.1312L810.6302 639.85Q810.8333 640.45935 811.0208 641.1Q811.16144 640.6156 811.41144 639.9281L812.80206 636.1312L813.8802 636.1312L811.5208 642.35L810.53644 642.35ZM819.0677 641.33435L819.0677 642.35L813.3802 642.35Q813.3802 641.975 813.5052 641.6156Q813.72394 641.0375 814.1927 640.475Q814.67706 639.9125 815.5833 639.1781Q816.98956 638.02185 817.47394 637.35Q817.97394 636.6781 817.97394 636.08435Q817.97394 635.45935 817.5208 635.0375Q817.0677 634.6 816.34894 634.6Q815.5833 634.6 815.1302 635.0531Q814.67706 635.5062 814.66144 636.3187L813.5833 636.20935Q813.6927 634.9906 814.41144 634.3656Q815.1458 633.725 816.3802 633.725Q817.61456 633.725 818.3333 634.4125Q819.05206 635.1 819.05206 636.1156Q819.05206 636.6312 818.8333 637.1312Q818.6302 637.6156 818.1302 638.1781Q817.6458 638.725 816.5208 639.6781Q815.5677 640.475 815.28644 640.77185Q815.0208 641.0531 814.84894 641.33435L819.0677 641.33435ZM822.1458 637.6937Q821.48956 637.4437 821.16144 637.0062Q820.84894 636.5531 820.84894 635.9437Q820.84894 635.0062 821.5208 634.3656Q822.2083 633.725 823.3177 633.725Q824.4427 633.725 825.1302 634.3812Q825.8177 635.0375 825.8177 635.975Q825.8177 636.5687 825.5052 637.0062Q825.1927 637.4437 824.55206 637.6937Q825.34894 637.9437 825.7552 638.52185Q826.16144 639.1 826.16144 639.89685Q826.16144 640.9906 825.3802 641.7406Q824.61456 642.4906 823.3333 642.4906Q822.0677 642.4906 821.28644 641.7406Q820.5052 640.9906 820.5052 639.8656Q820.5052 639.02185 820.92706 638.45935Q821.36456 637.89685 822.1458 637.6937ZM821.92706 635.89685Q821.92706 636.5062 822.3177 636.89685Q822.72394 637.2875 823.34894 637.2875Q823.9583 637.2875 824.34894 636.9125Q824.73956 636.52185 824.73956 635.95935Q824.73956 635.3812 824.3333 634.9906Q823.92706 634.58435 823.3333 634.58435Q822.72394 634.58435 822.3177 634.975Q821.92706 635.3656 821.92706 635.89685ZM821.59894 639.8656Q821.59894 640.3187 821.80206 640.7406Q822.0208 641.1625 822.4427 641.39685Q822.86456 641.6312 823.34894 641.6312Q824.09894 641.6312 824.5833 641.14685Q825.0833 640.6625 825.0833 639.9125Q825.0833 639.14685 824.5833 638.64685Q824.0833 638.14685 823.3177 638.14685Q822.5677 638.14685 822.0833 638.64685Q821.59894 639.1312 821.59894 639.8656Z" fill-rule="nonzero"/><path fill="#000000" d="M891.5948 642.35L891.5948 633.7562L892.6573 633.7562L892.6573 642.35L891.5948 642.35ZM896.3448 642.35L893.9854 636.1312L895.0948 636.1312L896.43854 639.85Q896.64166 640.45935 896.82916 641.1Q896.9698 640.6156 897.2198 639.9281L898.6104 636.1312L899.68854 636.1312L897.32916 642.35L896.3448 642.35ZM904.87604 641.33435L904.87604 642.35L899.18854 642.35Q899.18854 641.975 899.31354 641.6156Q899.5323 641.0375 900.00104 640.475Q900.4854 639.9125 901.39166 639.1781Q902.7979 638.02185 903.2823 637.35Q903.7823 636.6781 903.7823 636.08435Q903.7823 635.45935 903.32916 635.0375Q902.87604 634.6 902.1573 634.6Q901.39166 634.6 900.93854 635.0531Q900.4854 635.5062 900.4698 636.3187L899.39166 636.20935Q899.50104 634.9906 900.2198 634.3656Q900.95416 633.725 902.18854 633.725Q903.4229 633.725 904.14166 634.4125Q904.8604 635.1 904.8604 636.1156Q904.8604 636.6312 904.64166 637.1312Q904.43854 637.6156 903.93854 638.1781Q903.45416 638.725 902.32916 639.6781Q901.37604 640.475 901.0948 640.77185Q900.82916 641.0531 900.6573 641.33435L904.87604 641.33435ZM906.4854 640.3656L907.50104 640.27185Q907.62604 640.9906 907.9854 641.3187Q908.3604 641.6312 908.9229 641.6312Q909.4073 641.6312 909.76666 641.4125Q910.14166 641.1781 910.37604 640.8187Q910.6104 640.4437 910.76666 639.8187Q910.9229 639.1781 910.9229 638.52185Q910.9229 638.4437 910.9229 638.3031Q910.6104 638.8031 910.06354 639.1312Q909.51666 639.4437 908.87604 639.4437Q907.7979 639.4437 907.06354 638.6781Q906.32916 637.89685 906.32916 636.6312Q906.32916 635.3187 907.0948 634.52185Q907.87604 633.725 909.0323 633.725Q909.8604 633.725 910.5479 634.1781Q911.25104 634.6312 911.6104 635.475Q911.9698 636.3031 911.9698 637.8812Q911.9698 639.52185 911.6104 640.5062Q911.26666 641.475 910.5479 641.9906Q909.8448 642.4906 908.9073 642.4906Q907.89166 642.4906 907.25104 641.9437Q906.6104 641.3812 906.4854 640.3656ZM910.7979 636.5687Q910.7979 635.6625 910.31354 635.1312Q909.8448 634.6 909.1573 634.6Q908.45416 634.6 907.9229 635.1781Q907.4073 635.7406 907.4073 636.6625Q907.4073 637.475 907.9073 637.9906Q908.4073 638.5062 909.12604 638.5062Q909.8604 638.5062 910.32916 637.9906Q910.7979 637.475 910.7979 636.5687Z" fill-rule="nonzero"/><path fill="#000000" d="M977.40314 642.35L977.40314 633.7562L978.46564 633.7562L978.46564 642.35L977.40314 642.35ZM982.15314 642.35L979.79376 636.1312L980.90314 636.1312L982.2469 639.85Q982.45 640.45935 982.6375 641.1Q982.77814 640.6156 983.02814 639.9281L984.41876 636.1312L985.4969 636.1312L983.1375 642.35L982.15314 642.35ZM985.1375 640.08435L986.2 639.9437Q986.3719 640.83435 986.8094 641.2406Q987.2469 641.6312 987.8719 641.6312Q988.6219 641.6312 989.1375 641.1156Q989.65314 640.6 989.65314 639.83435Q989.65314 639.1156 989.16876 638.64685Q988.7 638.1625 987.96564 638.1625Q987.66876 638.1625 987.21564 638.2875L987.34064 637.35Q987.45 637.3656 987.5125 637.3656Q988.1844 637.3656 988.71564 637.02185Q989.2625 636.6625 989.2625 635.9281Q989.2625 635.35 988.8719 634.975Q988.48126 634.58435 987.85626 634.58435Q987.2469 634.58435 986.825 634.975Q986.41876 635.3656 986.3094 636.1312L985.2469 635.9437Q985.4344 634.89685 986.1219 634.3187Q986.8094 633.725 987.825 633.725Q988.52814 633.725 989.1219 634.0375Q989.71564 634.33435 990.02814 634.85Q990.34064 635.3656 990.34064 635.95935Q990.34064 636.5062 990.04376 636.975Q989.7469 637.4281 989.16876 637.6937Q989.91876 637.8656 990.34064 638.4281Q990.7625 638.975 990.7625 639.8187Q990.7625 640.9437 989.9344 641.725Q989.1219 642.5062 987.8719 642.5062Q986.7469 642.5062 985.9969 641.83435Q985.2469 641.14685 985.1375 640.08435ZM992.1375 638.1156Q992.1375 636.58435 992.45 635.6625Q992.7625 634.725 993.3719 634.225Q993.9969 633.725 994.9344 633.725Q995.6219 633.725 996.1375 634.0062Q996.66876 634.2875 997.0125 634.8187Q997.35626 635.33435 997.54376 636.08435Q997.73126 636.83435 997.73126 638.1156Q997.73126 639.6312 997.41876 640.5531Q997.1219 641.475 996.4969 641.9906Q995.8875 642.4906 994.9344 642.4906Q993.7 642.4906 992.98126 641.6Q992.1375 640.5375 992.1375 638.1156ZM993.21564 638.1156Q993.21564 640.225 993.71564 640.9281Q994.21564 641.6312 994.9344 641.6312Q995.66876 641.6312 996.15314 640.9281Q996.65314 640.225 996.65314 638.1156Q996.65314 635.9906 996.15314 635.3031Q995.66876 634.6 994.91876 634.6Q994.2 634.6 993.7625 635.20935Q993.21564 635.9906 993.21564 638.1156Z" fill-rule="nonzero"/><path fill="#000000" d="M1063.2114 642.35L1063.2114 633.7562L1064.2739 633.7562L1064.2739 642.35L1063.2114 642.35ZM1067.9614 642.35L1065.602 636.1312L1066.7114 636.1312L1068.0552 639.85Q1068.2583 640.45935 1068.4458 641.1Q1068.5864 640.6156 1068.8364 639.9281L1070.227 636.1312L1071.3052 636.1312L1068.9458 642.35L1067.9614 642.35ZM1070.9458 640.08435L1072.0083 639.9437Q1072.1802 640.83435 1072.6177 641.2406Q1073.0552 641.6312 1073.6802 641.6312Q1074.4302 641.6312 1074.9458 641.1156Q1075.4614 640.6 1075.4614 639.83435Q1075.4614 639.1156 1074.977 638.64685Q1074.5083 638.1625 1073.7739 638.1625Q1073.477 638.1625 1073.0239 638.2875L1073.1489 637.35Q1073.2583 637.3656 1073.3208 637.3656Q1073.9927 637.3656 1074.5239 637.02185Q1075.0708 636.6625 1075.0708 635.9281Q1075.0708 635.35 1074.6802 634.975Q1074.2896 634.58435 1073.6646 634.58435Q1073.0552 634.58435 1072.6333 634.975Q1072.227 635.3656 1072.1177 636.1312L1071.0552 635.9437Q1071.2427 634.89685 1071.9302 634.3187Q1072.6177 633.725 1073.6333 633.725Q1074.3364 633.725 1074.9302 634.0375Q1075.5239 634.33435 1075.8364 634.85Q1076.1489 635.3656 1076.1489 635.95935Q1076.1489 636.5062 1075.852 636.975Q1075.5552 637.4281 1074.977 637.6937Q1075.727 637.8656 1076.1489 638.4281Q1076.5708 638.975 1076.5708 639.8187Q1076.5708 640.9437 1075.7427 641.725Q1074.9302 642.5062 1073.6802 642.5062Q1072.5552 642.5062 1071.8052 641.83435Q1071.0552 641.14685 1070.9458 640.08435ZM1081.9146 642.35L1080.8677 642.35L1080.8677 635.6312Q1080.477 635.9906 1079.852 636.3656Q1079.2427 636.725 1078.7583 636.89685L1078.7583 635.8812Q1079.6333 635.45935 1080.2896 634.8812Q1080.9614 634.2875 1081.2427 633.725L1081.9146 633.725L1081.9146 642.35Z" fill-rule="nonzero"/><path stroke="#4285f4" stroke-width="4.0" stroke-linecap="butt" d="M443.5 90.416664L455.5 90.416664" fill-rule="nonzero"/><path fill="#1a1a1a" d="M466.875 94.416664L463.54688 85.822914L464.78125 85.822914L467.01562 92.072914Q467.28125 92.822914 467.46875 93.479164Q467.67188 92.77604 467.9375 92.072914L470.25 85.822914L471.40625 85.822914L468.04688 94.416664L466.875 94.416664ZM470.90625 91.30729Q470.90625 89.572914 471.85938 88.74479Q472.65625 88.05729 473.8125 88.05729Q475.09375 88.05729 475.90625 88.90104Q476.73438 89.729164 476.73438 91.21354Q476.73438 92.416664 476.375 93.104164Q476.01562 93.791664 475.3125 94.18229Q474.625 94.55729 473.8125 94.55729Q472.51562 94.55729 471.70312 93.729164Q470.90625 92.885414 470.90625 91.30729ZM471.98438 91.30729Q471.98438 92.49479 472.5 93.08854Q473.03125 93.68229 473.8125 93.68229Q474.60938 93.68229 475.125 93.08854Q475.64062 92.49479 475.64062 91.27604Q475.64062 90.11979 475.10938 89.52604Q474.59375 88.93229 473.8125 88.93229Q473.03125 88.93229 472.5 89.52604Q471.98438 90.104164 471.98438 91.30729ZM478.28125 94.416664L478.28125 88.197914L479.23438 88.197914L479.23438 89.135414Q479.59375 88.479164 479.89062 88.27604Q480.20312 88.05729 480.57812 88.05729Q481.10938 88.05729 481.65625 88.385414L481.29688 89.36979Q480.90625 89.135414 480.53125 89.135414Q480.17188 89.135414 479.89062 89.354164Q479.625 89.55729 479.51562 89.93229Q479.32812 90.49479 479.32812 91.15104L479.32812 94.416664L478.28125 94.416664ZM484.59375 93.479164L484.75 94.40104Q484.29688 94.49479 483.95312 94.49479Q483.375 94.49479 483.0625 94.322914Q482.75 94.135414 482.60938 93.83854Q482.48438 93.541664 482.48438 92.58854L482.48438 89.010414L481.71875 89.010414L481.71875 88.197914L482.48438 88.197914L482.48438 86.65104L483.53125 86.02604L483.53125 88.197914L484.59375 88.197914L484.59375 89.010414L483.53125 89.010414L483.53125 92.65104Q483.53125 93.104164 483.57812 93.229164Q483.64062 93.354164 483.76562 93.43229Q483.89062 93.510414 484.125 93.510414Q484.3125 93.510414 484.59375 93.479164ZM489.54688 92.416664L490.64062 92.541664Q490.39062 93.49479 489.6875 94.02604Q488.98438 94.55729 487.90625 94.55729Q486.54688 94.55729 485.73438 93.71354Q484.9375 92.86979 484.9375 91.354164Q484.9375 89.791664 485.75 88.93229Q486.5625 88.05729 487.84375 88.05729Q489.09375 88.05729 489.875 88.90104Q490.67188 89.74479 490.67188 91.291664Q490.67188 91.385414 490.67188 91.572914L486.03125 91.572914Q486.09375 92.604164 486.60938 93.15104Q487.125 93.68229 487.90625 93.68229Q488.48438 93.68229 488.89062 93.385414Q489.3125 93.072914 489.54688 92.416664ZM486.09375 90.71354L489.5625 90.71354Q489.5 89.916664 489.17188 89.52604Q488.65625 88.916664 487.85938 88.916664Q487.125 88.916664 486.625 89.40104Q486.14062 89.885414 486.09375 90.71354ZM491.59375 94.416664L493.85938 91.18229L491.76562 88.197914L493.07812 88.197914L494.03125 89.65104Q494.29688 90.072914 494.46875 90.354164Q494.71875 89.96354 494.9375 89.666664L495.98438 88.197914L497.25 88.197914L495.09375 91.11979L497.40625 94.416664L496.125 94.416664L494.84375 92.479164L494.5 91.96354L492.85938 94.416664L491.59375 94.416664Z" fill-rule="nonzero"/><path stroke="#ea4335" stroke-width="4.0" stroke-linecap="butt" d="M512.5 90.416664L524.5 90.416664" fill-rule="nonzero"/><path fill="#1a1a1a" d="M539.5625 91.40104L540.6875 91.697914Q540.3281 93.08854 539.40625 93.822914Q538.4844 94.55729 537.1406 94.55729Q535.75 94.55729 534.875 93.99479Q534.0 93.43229 533.5469 92.36979Q533.09375 91.291664 533.09375 90.05729Q533.09375 88.71354 533.6094 87.71354Q534.125 86.71354 535.0625 86.197914Q536.0156 85.68229 537.15625 85.68229Q538.4375 85.68229 539.3125 86.33854Q540.2031 86.99479 540.5469 88.18229L539.4219 88.447914Q539.125 87.510414 538.5469 87.08854Q537.9844 86.65104 537.125 86.65104Q536.1406 86.65104 535.46875 87.135414Q534.8125 87.604164 534.53125 88.40104Q534.2656 89.197914 534.2656 90.05729Q534.2656 91.15104 534.5781 91.96354Q534.90625 92.77604 535.5781 93.18229Q536.25 93.58854 537.0469 93.58854Q538.0 93.58854 538.65625 93.041664Q539.3281 92.49479 539.5625 91.40104ZM542.28125 94.416664L542.28125 88.197914L543.2344 88.197914L543.2344 89.135414Q543.59375 88.479164 543.8906 88.27604Q544.2031 88.05729 544.5781 88.05729Q545.1094 88.05729 545.65625 88.385414L545.2969 89.36979Q544.90625 89.135414 544.53125 89.135414Q544.1719 89.135414 543.8906 89.354164Q543.625 89.55729 543.5156 89.93229Q543.3281 90.49479 543.3281 91.15104L543.3281 94.416664L542.28125 94.416664ZM550.5469 92.416664L551.6406 92.541664Q551.3906 93.49479 550.6875 94.02604Q549.9844 94.55729 548.90625 94.55729Q547.5469 94.55729 546.7344 93.71354Q545.9375 92.86979 545.9375 91.354164Q545.9375 89.791664 546.75 88.93229Q547.5625 88.05729 548.84375 88.05729Q550.09375 88.05729 550.875 88.90104Q551.6719 89.74479 551.6719 91.291664Q551.6719 91.385414 551.6719 91.572914L547.03125 91.572914Q547.09375 92.604164 547.6094 93.15104Q548.125 93.68229 548.90625 93.68229Q549.4844 93.68229 549.8906 93.385414Q550.3125 93.072914 550.5469 92.416664ZM547.09375 90.71354L550.5625 90.71354Q550.5 89.916664 550.1719 89.52604Q549.65625 88.916664 548.8594 88.916664Q548.125 88.916664 547.625 89.40104Q547.1406 89.885414 547.09375 90.71354ZM557.5469 92.416664L558.6406 92.541664Q558.3906 93.49479 557.6875 94.02604Q556.9844 94.55729 555.90625 94.55729Q554.5469 94.55729 553.7344 93.71354Q552.9375 92.86979 552.9375 91.354164Q552.9375 89.791664 553.75 88.93229Q554.5625 88.05729 555.84375 88.05729Q557.09375 88.05729 557.875 88.90104Q558.6719 89.74479 558.6719 91.291664Q558.6719 91.385414 558.6719 91.572914L554.03125 91.572914Q554.09375 92.604164 554.6094 93.15104Q555.125 93.68229 555.90625 93.68229Q556.4844 93.68229 556.8906 93.385414Q557.3125 93.072914 557.5469 92.416664ZM554.09375 90.71354L557.5625 90.71354Q557.5 89.916664 557.1719 89.52604Q556.65625 88.916664 555.8594 88.916664Q555.125 88.916664 554.625 89.40104Q554.1406 89.885414 554.09375 90.71354ZM560.2969 96.80729L560.2969 88.197914L561.25 88.197914L561.25 88.99479Q561.59375 88.52604 562.0156 88.291664Q562.4531 88.05729 563.0625 88.05729Q563.8594 88.05729 564.46875 88.46354Q565.0781 88.86979 565.375 89.61979Q565.6875 90.36979 565.6875 91.260414Q565.6875 92.21354 565.34375 92.979164Q565.0156 93.74479 564.3594 94.15104Q563.7031 94.55729 562.9844 94.55729Q562.4531 94.55729 562.03125 94.33854Q561.6094 94.104164 561.34375 93.77604L561.34375 96.80729L560.2969 96.80729ZM561.25 91.33854Q561.25 92.541664 561.7344 93.11979Q562.21875 93.68229 562.90625 93.68229Q563.6094 93.68229 564.1094 93.08854Q564.6094 92.49479 564.6094 91.24479Q564.6094 90.05729 564.125 89.479164Q563.6406 88.885414 562.9531 88.885414Q562.28125 88.885414 561.7656 89.510414Q561.25 90.135414 561.25 91.33854ZM567.2969 87.041664L567.2969 85.822914L568.3594 85.822914L568.3594 87.041664L567.2969 87.041664ZM567.2969 94.416664L567.2969 88.197914L568.3594 88.197914L568.3594 94.416664L567.2969 94.416664ZM570.2969 94.416664L570.2969 88.197914L571.2344 88.197914L571.2344 89.072914Q571.9219 88.05729 573.21875 88.05729Q573.78125 88.05729 574.25 88.260414Q574.7344 88.46354 574.96875 88.791664Q575.2031 89.11979 575.2969 89.55729Q575.34375 89.854164 575.34375 90.58854L575.34375 94.416664L574.2969 94.416664L574.2969 90.635414Q574.2969 89.979164 574.1719 89.666664Q574.0469 89.354164 573.7344 89.166664Q573.4219 88.96354 573.0 88.96354Q572.3281 88.96354 571.8281 89.40104Q571.34375 89.822914 571.34375 91.010414L571.34375 94.416664L570.2969 94.416664ZM577.09375 94.93229L578.125 95.08854Q578.1875 95.55729 578.4844 95.77604Q578.875 96.072914 579.5469 96.072914Q580.28125 96.072914 580.6719 95.77604Q581.0781 95.479164 581.21875 94.96354Q581.3125 94.635414 581.2969 93.604164Q580.6094 94.416664 579.5781 94.416664Q578.2969 94.416664 577.59375 93.49479Q576.8906 92.55729 576.8906 91.27604Q576.8906 90.385414 577.2031 89.635414Q577.53125 88.86979 578.1406 88.46354Q578.75 88.05729 579.5781 88.05729Q580.6875 88.05729 581.40625 88.947914L581.40625 88.197914L582.375 88.197914L582.375 93.572914Q582.375 95.02604 582.0781 95.635414Q581.78125 96.24479 581.1406 96.58854Q580.5 96.947914 579.5625 96.947914Q578.4531 96.947914 577.7656 96.447914Q577.0781 95.947914 577.09375 94.93229ZM577.96875 91.197914Q577.96875 92.416664 578.4531 92.979164Q578.9375 93.541664 579.6719 93.541664Q580.40625 93.541664 580.8906 92.979164Q581.3906 92.416664 581.3906 91.229164Q581.3906 90.08854 580.875 89.510414Q580.375 88.93229 579.65625 88.93229Q578.9531 88.93229 578.4531 89.510414Q577.96875 90.072914 577.96875 91.197914ZM587.4844 94.416664L587.4844 85.822914L593.28125 85.822914L593.28125 86.83854L588.625 86.83854L588.625 89.49479L592.65625 89.49479L592.65625 90.510414L588.625 90.510414L588.625 94.416664L587.4844 94.416664ZM594.28125 94.416664L594.28125 88.197914L595.2344 88.197914L595.2344 89.135414Q595.59375 88.479164 595.8906 88.27604Q596.2031 88.05729 596.5781 88.05729Q597.1094 88.05729 597.65625 88.385414L597.2969 89.36979Q596.90625 89.135414 596.53125 89.135414Q596.1719 89.135414 595.8906 89.354164Q595.625 89.55729 595.5156 89.93229Q595.3281 90.49479 595.3281 91.15104L595.3281 94.416664L594.28125 94.416664ZM597.90625 91.30729Q597.90625 89.572914 598.8594 88.74479Q599.65625 88.05729 600.8125 88.05729Q602.09375 88.05729 602.90625 88.90104Q603.7344 89.729164 603.7344 91.21354Q603.7344 92.416664 603.375 93.104164Q603.0156 93.791664 602.3125 94.18229Q601.625 94.55729 600.8125 94.55729Q599.5156 94.55729 598.7031 93.729164Q597.90625 92.885414 597.90625 91.30729ZM598.9844 91.30729Q598.9844 92.49479 599.5 93.08854Q600.03125 93.68229 600.8125 93.68229Q601.6094 93.68229 602.125 93.08854Q602.6406 92.49479 602.6406 91.27604Q602.6406 90.11979 602.1094 89.52604Q601.59375 88.93229 600.8125 88.93229Q600.03125 88.93229 599.5 89.52604Q598.9844 90.104164 598.9844 91.30729ZM604.875 92.55729L605.90625 92.40104Q606.0 93.02604 606.3906 93.354164Q606.7969 93.68229 607.53125 93.68229Q608.25 93.68229 608.59375 93.40104Q608.9531 93.104164 608.9531 92.697914Q608.9531 92.33854 608.6406 92.135414Q608.4219 91.99479 607.5625 91.77604Q606.40625 91.479164 605.9531 91.27604Q605.5156 91.05729 605.28125 90.68229Q605.0469 90.30729 605.0469 89.83854Q605.0469 89.43229 605.2344 89.072914Q605.4219 88.71354 605.75 88.479164Q606.0 88.30729 606.4219 88.18229Q606.84375 88.05729 607.34375 88.05729Q608.0625 88.05729 608.6094 88.27604Q609.1719 88.479164 609.4375 88.83854Q609.7031 89.197914 609.7969 89.791664L608.7656 89.93229Q608.7031 89.46354 608.3594 89.197914Q608.03125 88.916664 607.40625 88.916664Q606.6875 88.916664 606.375 89.166664Q606.0625 89.40104 606.0625 89.729164Q606.0625 89.93229 606.1875 90.08854Q606.3281 90.260414 606.59375 90.36979Q606.75 90.43229 607.53125 90.635414Q608.65625 90.947914 609.09375 91.135414Q609.53125 91.322914 609.78125 91.68229Q610.03125 92.041664 610.03125 92.58854Q610.03125 93.11979 609.71875 93.58854Q609.4219 94.041664 608.84375 94.30729Q608.2656 94.55729 607.53125 94.55729Q606.3125 94.55729 605.6719 94.05729Q605.0469 93.541664 604.875 92.55729ZM614.59375 93.479164L614.75 94.40104Q614.2969 94.49479 613.9531 94.49479Q613.375 94.49479 613.0625 94.322914Q612.75 94.135414 612.6094 93.83854Q612.4844 93.541664 612.4844 92.58854L612.4844 89.010414L611.71875 89.010414L611.71875 88.197914L612.4844 88.197914L612.4844 86.65104L613.53125 86.02604L613.53125 88.197914L614.59375 88.197914L614.59375 89.010414L613.53125 89.010414L613.53125 92.65104Q613.53125 93.104164 613.5781 93.229164Q613.6406 93.354164 613.7656 93.43229Q613.8906 93.510414 614.125 93.510414Q614.3125 93.510414 614.59375 93.479164Z" fill-rule="nonzero"/><path stroke="#fbbc04" stroke-width="4.0" stroke-linecap="butt" d="M630.5 90.416664L642.5 90.416664" fill-rule="nonzero"/><path fill="#1a1a1a" d="M657.5625 91.40104L658.6875 91.697914Q658.3281 93.08854 657.40625 93.822914Q656.4844 94.55729 655.1406 94.55729Q653.75 94.55729 652.875 93.99479Q652.0 93.43229 651.5469 92.36979Q651.09375 91.291664 651.09375 90.05729Q651.09375 88.71354 651.6094 87.71354Q652.125 86.71354 653.0625 86.197914Q654.0156 85.68229 655.15625 85.68229Q656.4375 85.68229 657.3125 86.33854Q658.2031 86.99479 658.5469 88.18229L657.4219 88.447914Q657.125 87.510414 656.5469 87.08854Q655.9844 86.65104 655.125 86.65104Q654.1406 86.65104 653.46875 87.135414Q652.8125 87.604164 652.53125 88.40104Q652.2656 89.197914 652.2656 90.05729Q652.2656 91.15104 652.5781 91.96354Q652.90625 92.77604 653.5781 93.18229Q654.25 93.58854 655.0469 93.58854Q656.0 93.58854 656.65625 93.041664Q657.3281 92.49479 657.5625 91.40104ZM659.90625 91.30729Q659.90625 89.572914 660.8594 88.74479Q661.65625 88.05729 662.8125 88.05729Q664.09375 88.05729 664.90625 88.90104Q665.7344 89.729164 665.7344 91.21354Q665.7344 92.416664 665.375 93.104164Q665.0156 93.791664 664.3125 94.18229Q663.625 94.55729 662.8125 94.55729Q661.5156 94.55729 660.7031 93.729164Q659.90625 92.885414 659.90625 91.30729ZM660.9844 91.30729Q660.9844 92.49479 661.5 93.08854Q662.03125 93.68229 662.8125 93.68229Q663.6094 93.68229 664.125 93.08854Q664.6406 92.49479 664.6406 91.27604Q664.6406 90.11979 664.1094 89.52604Q663.59375 88.93229 662.8125 88.93229Q662.03125 88.93229 661.5 89.52604Q660.9844 90.104164 660.9844 91.30729ZM667.2656 94.416664L667.2656 85.822914L668.3281 85.822914L668.3281 94.416664L667.2656 94.416664ZM674.3281 94.416664L674.3281 93.635414Q673.7344 94.55729 672.59375 94.55729Q671.84375 94.55729 671.21875 94.15104Q670.59375 93.729164 670.25 92.99479Q669.90625 92.260414 669.90625 91.30729Q669.90625 90.385414 670.21875 89.61979Q670.53125 88.854164 671.15625 88.46354Q671.78125 88.05729 672.5469 88.05729Q673.1094 88.05729 673.5469 88.291664Q673.9844 88.52604 674.2656 88.90104L674.2656 85.822914L675.3125 85.822914L675.3125 94.416664L674.3281 94.416664ZM671.0 91.30729Q671.0 92.510414 671.5 93.104164Q672.0 93.68229 672.6875 93.68229Q673.375 93.68229 673.8594 93.11979Q674.34375 92.55729 674.34375 91.40104Q674.34375 90.11979 673.84375 89.52604Q673.3594 88.93229 672.6406 88.93229Q671.9375 88.93229 671.46875 89.510414Q671.0 90.072914 671.0 91.30729ZM680.0469 91.65104L681.1094 91.55729Q681.1875 92.21354 681.46875 92.61979Q681.75 93.02604 682.3281 93.291664Q682.9219 93.541664 683.65625 93.541664Q684.2969 93.541664 684.7969 93.354164Q685.2969 93.15104 685.53125 92.822914Q685.78125 92.479164 685.78125 92.08854Q685.78125 91.68229 685.5469 91.385414Q685.3125 91.072914 684.78125 90.86979Q684.4219 90.729164 683.2344 90.447914Q682.0625 90.166664 681.59375 89.916664Q680.96875 89.58854 680.6719 89.11979Q680.375 88.635414 680.375 88.041664Q680.375 87.40104 680.7344 86.83854Q681.1094 86.260414 681.8125 85.979164Q682.53125 85.68229 683.3906 85.68229Q684.34375 85.68229 685.0781 85.99479Q685.8125 86.291664 686.2031 86.90104Q686.59375 87.49479 686.625 88.24479L685.53125 88.322914Q685.4375 87.510414 684.9219 87.104164Q684.4219 86.68229 683.4375 86.68229Q682.40625 86.68229 681.9375 87.05729Q681.46875 87.43229 681.46875 87.96354Q681.46875 88.43229 681.7969 88.729164Q682.125 89.02604 683.5 89.33854Q684.8906 89.65104 685.40625 89.885414Q686.15625 90.24479 686.5156 90.77604Q686.875 91.291664 686.875 91.99479Q686.875 92.68229 686.4844 93.291664Q686.09375 93.885414 685.3594 94.229164Q684.625 94.55729 683.7031 94.55729Q682.53125 94.55729 681.7344 94.229164Q680.9531 93.885414 680.5 93.197914Q680.0625 92.510414 680.0469 91.65104ZM688.2969 94.416664L688.2969 88.197914L689.2344 88.197914L689.2344 89.072914Q689.9219 88.05729 691.21875 88.05729Q691.78125 88.05729 692.25 88.260414Q692.7344 88.46354 692.96875 88.791664Q693.2031 89.11979 693.2969 89.55729Q693.34375 89.854164 693.34375 90.58854L693.34375 94.416664L692.2969 94.416664L692.2969 90.635414Q692.2969 89.979164 692.1719 89.666664Q692.0469 89.354164 691.7344 89.166664Q691.4219 88.96354 691.0 88.96354Q690.3281 88.96354 689.8281 89.40104Q689.34375 89.822914 689.34375 91.010414L689.34375 94.416664L688.2969 94.416664ZM699.3594 93.65104Q698.7656 94.15104 698.21875 94.354164Q697.6875 94.55729 697.0625 94.55729Q696.03125 94.55729 695.4844 94.05729Q694.9375 93.55729 694.9375 92.77604Q694.9375 92.322914 695.1406 91.947914Q695.34375 91.55729 695.6875 91.33854Q696.03125 91.104164 696.4531 90.99479Q696.75 90.90104 697.3906 90.822914Q698.65625 90.68229 699.2656 90.46354Q699.2656 90.24479 699.2656 90.197914Q699.2656 89.541664 698.96875 89.27604Q698.5625 88.93229 697.7656 88.93229Q697.03125 88.93229 696.6719 89.197914Q696.3125 89.447914 696.1406 90.104164L695.1094 89.96354Q695.25 89.30729 695.5781 88.90104Q695.90625 88.49479 696.5156 88.27604Q697.125 88.05729 697.9219 88.05729Q698.71875 88.05729 699.21875 88.24479Q699.71875 88.43229 699.9531 88.71354Q700.1875 88.99479 700.28125 89.43229Q700.3281 89.697914 700.3281 90.40104L700.3281 91.80729Q700.3281 93.27604 700.3906 93.666664Q700.46875 94.05729 700.6719 94.416664L699.5625 94.416664Q699.40625 94.08854 699.3594 93.65104ZM699.2656 91.291664Q698.6875 91.52604 697.5469 91.697914Q696.8906 91.791664 696.625 91.916664Q696.3594 92.02604 696.2031 92.24479Q696.0625 92.46354 696.0625 92.74479Q696.0625 93.166664 696.375 93.447914Q696.7031 93.729164 697.3125 93.729164Q697.9219 93.729164 698.3906 93.46354Q698.875 93.197914 699.09375 92.729164Q699.2656 92.36979 699.2656 91.68229L699.2656 91.291664ZM702.2969 96.80729L702.2969 88.197914L703.25 88.197914L703.25 88.99479Q703.59375 88.52604 704.0156 88.291664Q704.4531 88.05729 705.0625 88.05729Q705.8594 88.05729 706.46875 88.46354Q707.0781 88.86979 707.375 89.61979Q707.6875 90.36979 707.6875 91.260414Q707.6875 92.21354 707.34375 92.979164Q707.0156 93.74479 706.3594 94.15104Q705.7031 94.55729 704.9844 94.55729Q704.4531 94.55729 704.03125 94.33854Q703.6094 94.104164 703.34375 93.77604L703.34375 96.80729L702.2969 96.80729ZM703.25 91.33854Q703.25 92.541664 703.7344 93.11979Q704.21875 93.68229 704.90625 93.68229Q705.6094 93.68229 706.1094 93.08854Q706.6094 92.49479 706.6094 91.24479Q706.6094 90.05729 706.125 89.479164Q705.6406 88.885414 704.9531 88.885414Q704.28125 88.885414 703.7656 89.510414Q703.25 90.135414 703.25 91.33854Z" fill-rule="nonzero"/><path fill="#757575" d="M411.14062 54.65L405.59375 40.3375L407.64062 40.3375L411.35938 50.728127Q411.8125 51.978127 412.10938 53.071877Q412.4375 51.9 412.89062 50.728127L416.75 40.3375L418.6875 40.3375L413.07812 54.65L411.14062 54.65ZM419.17188 49.4625Q419.17188 46.5875 420.76562 45.196877Q422.10938 44.040627 424.03125 44.040627Q426.17188 44.040627 427.51562 45.446877Q428.875 46.853127 428.875 49.321877Q428.875 51.321877 428.28125 52.478127Q427.6875 53.61875 426.53125 54.259377Q425.39062 54.884377 424.03125 54.884377Q421.84375 54.884377 420.5 53.49375Q419.17188 52.0875 419.17188 49.4625ZM420.96875 49.4625Q420.96875 51.4625 421.82812 52.446877Q422.70312 53.43125 424.03125 53.43125Q425.34375 53.43125 426.20312 52.446877Q427.07812 51.446877 427.07812 49.4Q427.07812 47.478127 426.20312 46.49375Q425.32812 45.49375 424.03125 45.49375Q422.70312 45.49375 421.82812 46.49375Q420.96875 47.478127 420.96875 49.4625ZM430.79688 54.65L430.79688 44.275L432.375 44.275L432.375 45.853127Q432.98438 44.74375 433.5 44.4Q434.01562 44.040627 434.625 44.040627Q435.51562 44.040627 436.4375 44.603127L435.82812 46.24375Q435.1875 45.853127 434.54688 45.853127Q433.96875 45.853127 433.5 46.2125Q433.04688 46.55625 432.84375 47.165627Q432.5625 48.103127 432.5625 49.2125L432.5625 54.65L430.79688 54.65ZM441.65625 53.071877L441.90625 54.634377Q441.17188 54.790627 440.57812 54.790627Q439.625 54.790627 439.09375 54.49375Q438.57812 54.18125 438.35938 53.696877Q438.14062 53.196877 438.14062 51.61875L438.14062 45.65L436.85938 45.65L436.85938 44.275L438.14062 44.275L438.14062 41.7125L439.89062 40.65L439.89062 44.275L441.65625 44.275L441.65625 45.65L439.89062 45.65L439.89062 51.7125Q439.89062 52.4625 439.98438 52.68125Q440.07812 52.884377 440.28125 53.025Q440.5 53.15 440.89062 53.15Q441.17188 53.15 441.65625 53.071877ZM450.92188 51.30625L452.73438 51.540627Q452.3125 53.11875 451.14062 54.009377Q449.98438 54.884377 448.17188 54.884377Q445.90625 54.884377 444.5625 53.49375Q443.23438 52.0875 443.23438 49.55625Q443.23438 46.93125 444.57812 45.49375Q445.92188 44.040627 448.07812 44.040627Q450.15625 44.040627 451.46875 45.4625Q452.79688 46.86875 452.79688 49.446877Q452.79688 49.603127 452.78125 49.915627L445.04688 49.915627Q445.14062 51.61875 446.01562 52.525Q446.89062 53.43125 448.1875 53.43125Q449.15625 53.43125 449.82812 52.93125Q450.51562 52.415627 450.92188 51.30625ZM445.14062 48.4625L450.9375 48.4625Q450.82812 47.165627 450.28125 46.509377Q449.4375 45.49375 448.09375 45.49375Q446.89062 45.49375 446.0625 46.30625Q445.23438 47.103127 445.14062 48.4625ZM453.64062 54.65L457.4375 49.259377L453.9375 44.275L456.125 44.275L457.71875 46.7125Q458.17188 47.4 458.4375 47.86875Q458.875 47.228127 459.23438 46.728127L460.98438 44.275L463.07812 44.275L459.5 49.165627L463.35938 54.65L461.20312 54.65L459.0625 51.43125L458.5 50.55625L455.78125 54.65L453.64062 54.65ZM472.70312 54.65L468.75 44.275L470.60938 44.275L472.84375 50.49375Q473.20312 51.49375 473.5 52.571877Q473.73438 51.759377 474.15625 50.603127L476.45312 44.275L478.26562 44.275L474.34375 54.65L472.70312 54.65ZM478.10938 51.55625L479.85938 51.275Q480.0 52.321877 480.67188 52.884377Q481.34375 53.43125 482.54688 53.43125Q483.75 53.43125 484.32812 52.946877Q484.92188 52.446877 484.92188 51.790627Q484.92188 51.196877 484.40625 50.853127Q484.04688 50.61875 482.60938 50.259377Q480.67188 49.759377 479.92188 49.415627Q479.1875 49.05625 478.79688 48.43125Q478.40625 47.790627 478.40625 47.025Q478.40625 46.3375 478.71875 45.74375Q479.04688 45.15 479.59375 44.759377Q480.0 44.4625 480.70312 44.259377Q481.42188 44.040627 482.23438 44.040627Q483.45312 44.040627 484.375 44.4Q485.29688 44.74375 485.73438 45.353127Q486.17188 45.946877 486.34375 46.946877L484.625 47.18125Q484.5 46.384377 483.9375 45.946877Q483.375 45.49375 482.35938 45.49375Q481.14062 45.49375 480.625 45.9Q480.10938 46.290627 480.10938 46.821877Q480.10938 47.165627 480.32812 47.446877Q480.53125 47.728127 481.0 47.915627Q481.26562 48.009377 482.54688 48.353127Q484.42188 48.853127 485.15625 49.18125Q485.89062 49.49375 486.3125 50.103127Q486.73438 50.696877 486.73438 51.603127Q486.73438 52.478127 486.21875 53.259377Q485.70312 54.040627 484.73438 54.4625Q483.76562 54.884377 482.54688 54.884377Q480.53125 54.884377 479.46875 54.040627Q478.40625 53.196877 478.10938 51.55625ZM505.26562 49.634377L507.15625 50.103127Q506.5625 52.446877 505.01562 53.68125Q503.46875 54.9 501.21875 54.9Q498.90625 54.9 497.45312 53.9625Q496.01562 53.009377 495.25 51.228127Q494.5 49.43125 494.5 47.384377Q494.5 45.15 495.34375 43.49375Q496.20312 41.821877 497.78125 40.9625Q499.35938 40.0875 501.25 40.0875Q503.40625 40.0875 504.85938 41.18125Q506.32812 42.275 506.90625 44.259377L505.04688 44.696877Q504.54688 43.134377 503.59375 42.43125Q502.65625 41.7125 501.21875 41.7125Q499.5625 41.7125 498.45312 42.509377Q497.34375 43.290627 496.89062 44.634377Q496.45312 45.9625 496.45312 47.36875Q496.45312 49.196877 496.98438 50.571877Q497.51562 51.93125 498.64062 52.603127Q499.76562 53.275 501.0625 53.275Q502.65625 53.275 503.76562 52.353127Q504.875 51.43125 505.26562 49.634377ZM508.79688 54.65L508.79688 44.275L510.375 44.275L510.375 45.853127Q510.98438 44.74375 511.5 44.4Q512.0156 44.040627 512.625 44.040627Q513.5156 44.040627 514.4375 44.603127L513.8281 46.24375Q513.1875 45.853127 512.5469 45.853127Q511.96875 45.853127 511.5 46.2125Q511.04688 46.55625 510.84375 47.165627Q510.5625 48.103127 510.5625 49.2125L510.5625 54.65L508.79688 54.65ZM522.9219 51.30625L524.7344 51.540627Q524.3125 53.11875 523.1406 54.009377Q521.9844 54.884377 520.1719 54.884377Q517.90625 54.884377 516.5625 53.49375Q515.2344 52.0875 515.2344 49.55625Q515.2344 46.93125 516.5781 45.49375Q517.9219 44.040627 520.0781 44.040627Q522.15625 44.040627 523.46875 45.4625Q524.7969 46.86875 524.7969 49.446877Q524.7969 49.603127 524.78125 49.915627L517.0469 49.915627Q517.1406 51.61875 518.0156 52.525Q518.8906 53.43125 520.1875 53.43125Q521.15625 53.43125 521.8281 52.93125Q522.5156 52.415627 522.9219 51.30625ZM517.1406 48.4625L522.9375 48.4625Q522.8281 47.165627 522.28125 46.509377Q521.4375 45.49375 520.09375 45.49375Q518.8906 45.49375 518.0625 46.30625Q517.2344 47.103127 517.1406 48.4625ZM533.9219 51.30625L535.7344 51.540627Q535.3125 53.11875 534.1406 54.009377Q532.9844 54.884377 531.1719 54.884377Q528.90625 54.884377 527.5625 53.49375Q526.2344 52.0875 526.2344 49.55625Q526.2344 46.93125 527.5781 45.49375Q528.9219 44.040627 531.0781 44.040627Q533.15625 44.040627 534.46875 45.4625Q535.7969 46.86875 535.7969 49.446877Q535.7969 49.603127 535.78125 49.915627L528.0469 49.915627Q528.1406 51.61875 529.0156 52.525Q529.8906 53.43125 531.1875 53.43125Q532.15625 53.43125 532.8281 52.93125Q533.5156 52.415627 533.9219 51.30625ZM528.1406 48.4625L533.9375 48.4625Q533.8281 47.165627 533.28125 46.509377Q532.4375 45.49375 531.09375 45.49375Q529.8906 45.49375 529.0625 46.30625Q528.2344 47.103127 528.1406 48.4625ZM537.8125 58.61875L537.8125 44.275L539.4219 44.275L539.4219 45.61875Q539.9844 44.8375 540.6875 44.446877Q541.40625 44.040627 542.4219 44.040627Q543.75 44.040627 544.7656 44.728127Q545.78125 45.415627 546.2969 46.665627Q546.8281 47.9 546.8281 49.384377Q546.8281 50.978127 546.25 52.259377Q545.6875 53.525 544.59375 54.2125Q543.5 54.884377 542.2969 54.884377Q541.4219 54.884377 540.71875 54.509377Q540.03125 54.134377 539.5781 53.571877L539.5781 58.61875L537.8125 58.61875ZM539.40625 49.525Q539.40625 51.525 540.21875 52.478127Q541.03125 53.43125 542.1875 53.43125Q543.3594 53.43125 544.1875 52.446877Q545.03125 51.4625 545.03125 49.36875Q545.03125 47.4 544.2031 46.415627Q543.3906 45.415627 542.2656 45.415627Q541.1406 45.415627 540.2656 46.478127Q539.40625 47.525 539.40625 49.525ZM548.8281 42.353127L548.8281 40.3375L550.59375 40.3375L550.59375 42.353127L548.8281 42.353127ZM548.8281 54.65L548.8281 44.275L550.59375 44.275L550.59375 54.65L548.8281 54.65ZM552.8125 54.65L552.8125 44.275L554.40625 44.275L554.40625 45.759377Q555.5469 44.040627 557.7031 44.040627Q558.6406 44.040627 559.4219 44.384377Q560.21875 44.7125 560.6094 45.259377Q561.0 45.80625 561.15625 46.55625Q561.25 47.05625 561.25 48.275L561.25 54.65L559.4844 54.65L559.4844 48.3375Q559.4844 47.259377 559.28125 46.728127Q559.0781 46.196877 558.5469 45.884377Q558.03125 45.571877 557.3281 45.571877Q556.2031 45.571877 555.3906 46.290627Q554.5781 46.99375 554.5781 48.978127L554.5781 54.65L552.8125 54.65ZM562.5 55.509377L564.2031 55.759377Q564.3125 56.55625 564.7969 56.915627Q565.4531 57.4 566.59375 57.4Q567.8125 57.4 568.46875 56.915627Q569.1406 56.43125 569.375 55.55625Q569.5156 55.009377 569.5 53.290627Q568.34375 54.65 566.625 54.65Q564.4844 54.65 563.3125 53.103127Q562.1406 51.55625 562.1406 49.4Q562.1406 47.915627 562.6719 46.665627Q563.21875 45.415627 564.2344 44.728127Q565.2656 44.040627 566.6406 44.040627Q568.46875 44.040627 569.6719 45.525L569.6719 44.275L571.28125 44.275L571.28125 53.24375Q571.28125 55.665627 570.78125 56.665627Q570.2969 57.68125 569.21875 58.259377Q568.15625 58.853127 566.59375 58.853127Q564.75 58.853127 563.59375 58.025Q562.4531 57.196877 562.5 55.509377ZM563.9531 49.275Q563.9531 51.321877 564.7656 52.259377Q565.5781 53.196877 566.7969 53.196877Q568.0 53.196877 568.8125 52.259377Q569.6406 51.321877 569.6406 49.3375Q569.6406 47.43125 568.7969 46.4625Q567.9531 45.49375 566.7656 45.49375Q565.59375 45.49375 564.7656 46.446877Q563.9531 47.4 563.9531 49.275ZM580.1406 54.65L580.1406 40.3375L589.7969 40.3375L589.7969 42.025L582.03125 42.025L582.03125 46.4625L588.75 46.4625L588.75 48.15L582.03125 48.15L582.03125 54.65L580.1406 54.65ZM591.7969 54.65L591.7969 44.275L593.375 44.275L593.375 45.853127Q593.9844 44.74375 594.5 44.4Q595.0156 44.040627 595.625 44.040627Q596.5156 44.040627 597.4375 44.603127L596.8281 46.24375Q596.1875 45.853127 595.5469 45.853127Q594.96875 45.853127 594.5 46.2125Q594.0469 46.55625 593.84375 47.165627Q593.5625 48.103127 593.5625 49.2125L593.5625 54.65L591.7969 54.65ZM598.1719 49.4625Q598.1719 46.5875 599.7656 45.196877Q601.1094 44.040627 603.03125 44.040627Q605.1719 44.040627 606.5156 45.446877Q607.875 46.853127 607.875 49.321877Q607.875 51.321877 607.28125 52.478127Q606.6875 53.61875 605.53125 54.259377Q604.3906 54.884377 603.03125 54.884377Q600.84375 54.884377 599.5 53.49375Q598.1719 52.0875 598.1719 49.4625ZM599.96875 49.4625Q599.96875 51.4625 600.8281 52.446877Q601.7031 53.43125 603.03125 53.43125Q604.34375 53.43125 605.2031 52.446877Q606.0781 51.446877 606.0781 49.4Q606.0781 47.478127 605.2031 46.49375Q604.3281 45.49375 603.03125 45.49375Q601.7031 45.49375 600.8281 46.49375Q599.96875 47.478127 599.96875 49.4625ZM609.1094 51.55625L610.8594 51.275Q611.0 52.321877 611.6719 52.884377Q612.34375 53.43125 613.5469 53.43125Q614.75 53.43125 615.3281 52.946877Q615.9219 52.446877 615.9219 51.790627Q615.9219 51.196877 615.40625 50.853127Q615.0469 50.61875 613.6094 50.259377Q611.6719 49.759377 610.9219 49.415627Q610.1875 49.05625 609.7969 48.43125Q609.40625 47.790627 609.40625 47.025Q609.40625 46.3375 609.71875 45.74375Q610.0469 45.15 610.59375 44.759377Q611.0 44.4625 611.7031 44.259377Q612.4219 44.040627 613.2344 44.040627Q614.4531 44.040627 615.375 44.4Q616.2969 44.74375 616.7344 45.353127Q617.1719 45.946877 617.34375 46.946877L615.625 47.18125Q615.5 46.384377 614.9375 45.946877Q614.375 45.49375 613.3594 45.49375Q612.1406 45.49375 611.625 45.9Q611.1094 46.290627 611.1094 46.821877Q611.1094 47.165627 611.3281 47.446877Q611.53125 47.728127 612.0 47.915627Q612.2656 48.009377 613.5469 48.353127Q615.4219 48.853127 616.15625 49.18125Q616.8906 49.49375 617.3125 50.103127Q617.7344 50.696877 617.7344 51.603127Q617.7344 52.478127 617.21875 53.259377Q616.7031 54.040627 615.7344 54.4625Q614.7656 54.884377 613.5469 54.884377Q611.53125 54.884377 610.46875 54.040627Q609.40625 53.196877 609.1094 51.55625ZM623.65625 53.071877L623.90625 54.634377Q623.1719 54.790627 622.5781 54.790627Q621.625 54.790627 621.09375 54.49375Q620.5781 54.18125 620.3594 53.696877Q620.1406 53.196877 620.1406 51.61875L620.1406 45.65L618.8594 45.65L618.8594 44.275L620.1406 44.275L620.1406 41.7125L621.8906 40.65L621.8906 44.275L623.65625 44.275L623.65625 45.65L621.8906 45.65L621.8906 51.7125Q621.8906 52.4625 621.9844 52.68125Q622.0781 52.884377 622.28125 53.025Q622.5 53.15 622.8906 53.15Q623.1719 53.15 623.65625 53.071877ZM634.7031 54.65L630.75 44.275L632.6094 44.275L634.84375 50.49375Q635.2031 51.49375 635.5 52.571877Q635.7344 51.759377 636.15625 50.603127L638.4531 44.275L640.2656 44.275L636.34375 54.65L634.7031 54.65ZM640.1094 51.55625L641.8594 51.275Q642.0 52.321877 642.6719 52.884377Q643.34375 53.43125 644.5469 53.43125Q645.75 53.43125 646.3281 52.946877Q646.9219 52.446877 646.9219 51.790627Q646.9219 51.196877 646.40625 50.853127Q646.0469 50.61875 644.6094 50.259377Q642.6719 49.759377 641.9219 49.415627Q641.1875 49.05625 640.7969 48.43125Q640.40625 47.790627 640.40625 47.025Q640.40625 46.3375 640.71875 45.74375Q641.0469 45.15 641.59375 44.759377Q642.0 44.4625 642.7031 44.259377Q643.4219 44.040627 644.2344 44.040627Q645.4531 44.040627 646.375 44.4Q647.2969 44.74375 647.7344 45.353127Q648.1719 45.946877 648.34375 46.946877L646.625 47.18125Q646.5 46.384377 645.9375 45.946877Q645.375 45.49375 644.3594 45.49375Q643.1406 45.49375 642.625 45.9Q642.1094 46.290627 642.1094 46.821877Q642.1094 47.165627 642.3281 47.446877Q642.53125 47.728127 643.0 47.915627Q643.2656 48.009377 644.5469 48.353127Q646.4219 48.853127 647.15625 49.18125Q647.8906 49.49375 648.3125 50.103127Q648.7344 50.696877 648.7344 51.603127Q648.7344 52.478127 648.21875 53.259377Q647.7031 54.040627 646.7344 54.4625Q645.7656 54.884377 644.5469 54.884377Q642.53125 54.884377 641.46875 54.040627Q640.40625 53.196877 640.1094 51.55625ZM667.2656 49.634377L669.15625 50.103127Q668.5625 52.446877 667.0156 53.68125Q665.46875 54.9 663.21875 54.9Q660.90625 54.9 659.4531 53.9625Q658.0156 53.009377 657.25 51.228127Q656.5 49.43125 656.5 47.384377Q656.5 45.15 657.34375 43.49375Q658.2031 41.821877 659.78125 40.9625Q661.3594 40.0875 663.25 40.0875Q665.40625 40.0875 666.8594 41.18125Q668.3281 42.275 668.90625 44.259377L667.0469 44.696877Q666.5469 43.134377 665.59375 42.43125Q664.65625 41.7125 663.21875 41.7125Q661.5625 41.7125 660.4531 42.509377Q659.34375 43.290627 658.8906 44.634377Q658.4531 45.9625 658.4531 47.36875Q658.4531 49.196877 658.9844 50.571877Q659.5156 51.93125 660.6406 52.603127Q661.7656 53.275 663.0625 53.275Q664.65625 53.275 665.7656 52.353127Q666.875 51.43125 667.2656 49.634377ZM670.1719 49.4625Q670.1719 46.5875 671.7656 45.196877Q673.1094 44.040627 675.03125 44.040627Q677.1719 44.040627 678.5156 45.446877Q679.875 46.853127 679.875 49.321877Q679.875 51.321877 679.28125 52.478127Q678.6875 53.61875 677.53125 54.259377Q676.3906 54.884377 675.03125 54.884377Q672.84375 54.884377 671.5 53.49375Q670.1719 52.0875 670.1719 49.4625ZM671.96875 49.4625Q671.96875 51.4625 672.8281 52.446877Q673.7031 53.43125 675.03125 53.43125Q676.34375 53.43125 677.2031 52.446877Q678.0781 51.446877 678.0781 49.4Q678.0781 47.478127 677.2031 46.49375Q676.3281 45.49375 675.03125 45.49375Q673.7031 45.49375 672.8281 46.49375Q671.96875 47.478127 671.96875 49.4625ZM681.78125 54.65L681.78125 40.3375L683.53125 40.3375L683.53125 54.65L681.78125 54.65ZM692.5469 54.65L692.5469 53.3375Q691.5625 54.884377 689.6406 54.884377Q688.40625 54.884377 687.3594 54.196877Q686.3281 53.509377 685.75 52.290627Q685.1875 51.071877 685.1875 49.478127Q685.1875 47.915627 685.7031 46.65Q686.21875 45.384377 687.25 44.7125Q688.2969 44.040627 689.5625 44.040627Q690.5 44.040627 691.2344 44.446877Q691.96875 44.8375 692.4375 45.4625L692.4375 40.3375L694.1719 40.3375L694.1719 54.65L692.5469 54.65ZM686.9844 49.478127Q686.9844 51.4625 687.8281 52.446877Q688.6719 53.43125 689.8125 53.43125Q690.96875 53.43125 691.7656 52.49375Q692.5781 51.55625 692.5781 49.61875Q692.5781 47.49375 691.75 46.49375Q690.9375 45.49375 689.7344 45.49375Q688.5625 45.49375 687.7656 46.4625Q686.9844 47.415627 686.9844 49.478127ZM702.40625 50.05625L704.1875 49.9Q704.3125 50.9625 704.7656 51.65Q705.2344 52.3375 706.2031 52.775Q707.1875 53.196877 708.4219 53.196877Q709.5 53.196877 710.3281 52.884377Q711.15625 52.55625 711.5625 51.99375Q711.96875 51.43125 711.96875 50.759377Q711.96875 50.0875 711.5781 49.5875Q711.1875 49.0875 710.2969 48.74375Q709.71875 48.509377 707.7344 48.040627Q705.7656 47.571877 704.9844 47.15Q703.9531 46.61875 703.4531 45.821877Q702.9531 45.025 702.9531 44.040627Q702.9531 42.946877 703.5625 42.009377Q704.1719 41.071877 705.3594 40.5875Q706.5469 40.0875 707.9844 40.0875Q709.5781 40.0875 710.7969 40.603127Q712.0156 41.11875 712.65625 42.11875Q713.3125 43.103127 713.3594 44.36875L711.5469 44.509377Q711.40625 43.15 710.5625 42.4625Q709.71875 41.759377 708.0625 41.759377Q706.34375 41.759377 705.5469 42.4Q704.7656 43.025 704.7656 43.9Q704.7656 44.68125 705.3281 45.18125Q705.875 45.68125 708.1875 46.196877Q710.5 46.7125 711.3594 47.103127Q712.6094 47.68125 713.2031 48.571877Q713.7969 49.446877 713.7969 50.603127Q713.7969 51.74375 713.1406 52.759377Q712.4844 53.775 711.25 54.3375Q710.03125 54.9 708.5 54.9Q706.5625 54.9 705.25 54.3375Q703.9375 53.759377 703.1875 52.61875Q702.4375 51.478127 702.40625 50.05625ZM715.8125 54.65L715.8125 44.275L717.40625 44.275L717.40625 45.759377Q718.5469 44.040627 720.7031 44.040627Q721.6406 44.040627 722.4219 44.384377Q723.21875 44.7125 723.6094 45.259377Q724.0 45.80625 724.15625 46.55625Q724.25 47.05625 724.25 48.275L724.25 54.65L722.4844 54.65L722.4844 48.3375Q722.4844 47.259377 722.28125 46.728127Q722.0781 46.196877 721.5469 45.884377Q721.03125 45.571877 720.3281 45.571877Q719.2031 45.571877 718.3906 46.290627Q717.5781 46.99375 717.5781 48.978127L717.5781 54.65L715.8125 54.65ZM732.59375 53.36875Q731.6094 54.196877 730.7031 54.540627Q729.7969 54.884377 728.7656 54.884377Q727.0625 54.884377 726.1406 54.05625Q725.21875 53.2125 725.21875 51.915627Q725.21875 51.15 725.5625 50.525Q725.9219 49.9 726.4844 49.525Q727.0469 49.134377 727.75 48.93125Q728.2656 48.80625 729.3125 48.665627Q731.4375 48.415627 732.4375 48.071877Q732.4531 47.7125 732.4531 47.603127Q732.4531 46.540627 731.9531 46.0875Q731.28125 45.49375 729.9531 45.49375Q728.7031 45.49375 728.1094 45.93125Q727.53125 46.36875 727.25 47.478127L725.53125 47.24375Q725.7656 46.134377 726.2969 45.4625Q726.8281 44.775 727.84375 44.415627Q728.8594 44.040627 730.2031 44.040627Q731.53125 44.040627 732.3594 44.353127Q733.1875 44.665627 733.5781 45.15Q733.96875 45.61875 734.125 46.3375Q734.21875 46.790627 734.21875 47.9625L734.21875 50.30625Q734.21875 52.759377 734.3281 53.415627Q734.4375 54.05625 734.78125 54.65L732.9375 54.65Q732.6719 54.103127 732.59375 53.36875ZM732.4375 49.446877Q731.4844 49.8375 729.5625 50.103127Q728.4844 50.259377 728.03125 50.4625Q727.59375 50.65 727.34375 51.025Q727.09375 51.4 727.09375 51.86875Q727.09375 52.571877 727.625 53.040627Q728.15625 53.509377 729.1875 53.509377Q730.2031 53.509377 730.9844 53.071877Q731.78125 52.61875 732.15625 51.853127Q732.4375 51.24375 732.4375 50.0875L732.4375 49.446877ZM736.8125 58.61875L736.8125 44.275L738.4219 44.275L738.4219 45.61875Q738.9844 44.8375 739.6875 44.446877Q740.40625 44.040627 741.4219 44.040627Q742.75 44.040627 743.7656 44.728127Q744.78125 45.415627 745.2969 46.665627Q745.8281 47.9 745.8281 49.384377Q745.8281 50.978127 745.25 52.259377Q744.6875 53.525 743.59375 54.2125Q742.5 54.884377 741.2969 54.884377Q740.4219 54.884377 739.71875 54.509377Q739.03125 54.134377 738.5781 53.571877L738.5781 58.61875L736.8125 58.61875ZM738.40625 49.525Q738.40625 51.525 739.21875 52.478127Q740.03125 53.43125 741.1875 53.43125Q742.3594 53.43125 743.1875 52.446877Q744.03125 51.4625 744.03125 49.36875Q744.03125 47.4 743.2031 46.415627Q742.3906 45.415627 741.2656 45.415627Q740.1406 45.415627 739.2656 46.478127Q738.40625 47.525 738.40625 49.525Z" fill-rule="nonzero"/></svg>